<?xml version="1.0" encoding="UTF-8" standalone="no"?>
<svg width="1200px" height="300px" viewBox="0 0 1200 300" version="1.1" xmlns="http://www.w3.org/2000/svg" xmlns:xlink="http://www.w3.org/1999/xlink">
    <!-- Generator: Sketch 3.8.3 (29802) - http://www.bohemiancoding.com/sketch -->
    <title>anim_decir</title>
    <desc>Created with Sketch.</desc>
    <defs></defs>
    <g id="Page-1" stroke="none" stroke-width="1" fill="none" fill-rule="evenodd">
        <g id="anim_decir">
            <rect id="Rectangle-2" fill="#D8D8D8" x="0" y="296" width="4" height="4"></rect>
            <rect id="Rectangle-2-Copy" fill="#D8D8D8" x="0" y="0" width="4" height="4"></rect>
            <rect id="Rectangle-2" fill="#D8D8D8" x="1196" y="296" width="4" height="4"></rect>
            <rect id="Rectangle-2-Copy" fill="#D8D8D8" x="1196" y="0" width="4" height="4"></rect>
            <g id="circulo" transform="translate(27.000000, 108.000000)" stroke="#0000FF" stroke-width="3">
                <path d="M67.8185477,0.107387869 C91.3455477,1.24138787 131.881548,5.49338787 142.652548,29.5883876 C153.424548,53.6823876 140.152548,88.3353876 113.739548,105.273388 C87.3265477,122.210388 52.5115477,123.414388 29.2675477,115.477388 C6.02254771,107.540388 -4.46545229,83.8133876 1.77054771,60.1023876 C8.00754771,36.3913876 10.5585477,20.8003876 31.8185477,7.19438787 C31.8185477,7.19438787 44.2905477,-1.02661213 67.8185477,0.107387869 L67.8185477,0.107387869 Z" id="icono_t0t-2-path"></path>
            </g>
            <g id="sentir" transform="translate(131.000000, 91.000000)" stroke="#0000FF" stroke-width="3">
                <path d="M8.4533064,5.28341488 C8.4533064,5.28341488 5.56614768,26.4752194 15.7830736,39.3490838" id="Path-1"></path>
                <path d="M-6.02154481,31.5779955 C-6.02154481,31.5779955 15.215248,27.5533397 20.6076243,15.3858297" id="Path-2"></path>
            </g>
            <g id="pensar" transform="translate(115.000000, 180.000000)" stroke="#0000FF" stroke-width="3">
                <path d="M13.5,28.2677008 L13.5,2.8629578" id="Path-6-Copy"></path>
                <path d="M3.5,28.2677008 L3.5,2.8629578" id="Path-6-Copy-2"></path>
                <path d="M2.72606456,16.5 L23.2533877,16.5" id="Path-5-Copy"></path>
                <path d="M2.72606456,6.5 L23.2533877,6.5" id="Path-5"></path>
                <path d="M23.5,28.2677008 L23.5,2.8629578" id="Path-6"></path>
                <path d="M2.72606456,26.5 L23.2533877,26.5" id="Path-5-Copy-2"></path>
            </g>
            <g id="hacer" transform="translate(54.000000, 191.000000)" stroke-width="3" stroke="#0000FF">
                <polygon id="Path-31" points="0.502093363 16.6165367 0.502093363 0.368792005 16.5807703 0.368792005 16.5807703 16.7326423"></polygon>
            </g>
            <g id="decir" transform="translate(44.000000, 104.000000)" stroke="#0000FF" stroke-width="3">
                <path d="M5.03604287,30.1375143 C-1.91236523,30.137514 -1.03691847,21.4801845 5.036043,15.0870265 C11.1090045,8.69386856 11.5443296,0.0293434246 5.03604314,0.0293434236 C-1.47224334,0.0293434227 0.147932525,7.61688904 5.03604292,15.0870268 C9.92415331,22.5571645 11.984451,30.1375145 5.03604287,30.1375143 Z" id="Path-31" transform="translate(4.951473, 15.083429) rotate(-270.000000) translate(-4.951473, -15.083429) "></path>
            </g>
            <g id="circulo" transform="translate(227.000000, 108.000000)" stroke="#0000FF" stroke-width="3">
                <path d="M67.8185477,0.107387869 C91.3455477,1.24138787 131.881548,5.49338787 142.652548,29.5883876 C153.424548,53.6823876 140.152548,88.3353876 113.739548,105.273388 C87.3265477,122.210388 52.5115477,123.414388 29.2675477,115.477388 C6.02254771,107.540388 -4.46545229,83.8133876 1.77054771,60.1023876 C8.00754771,36.3913876 10.5585477,20.8003876 31.8185477,7.19438787 C31.8185477,7.19438787 44.2905477,-1.02661213 67.8185477,0.107387869 L67.8185477,0.107387869 Z" id="icono_t0t-2-path"></path>
            </g>
            <g id="sentir" transform="translate(331.000000, 91.000000)" stroke="#0000FF" stroke-width="3">
                <path d="M8.4533064,5.28341488 C8.4533064,5.28341488 5.56614768,26.4752194 15.7830736,39.3490838" id="Path-1"></path>
                <path d="M-6.02154481,31.5779955 C-6.02154481,31.5779955 15.215248,27.5533397 20.6076243,15.3858297" id="Path-2"></path>
            </g>
            <g id="pensar" transform="translate(315.000000, 180.000000)" stroke="#0000FF" stroke-width="3">
                <path d="M13.5,28.2677008 L13.5,2.8629578" id="Path-6-Copy"></path>
                <path d="M3.5,28.2677008 L3.5,2.8629578" id="Path-6-Copy-2"></path>
                <path d="M2.72606456,16.5 L23.2533877,16.5" id="Path-5-Copy"></path>
                <path d="M2.72606456,6.5 L23.2533877,6.5" id="Path-5"></path>
                <path d="M23.5,28.2677008 L23.5,2.8629578" id="Path-6"></path>
                <path d="M2.72606456,26.5 L23.2533877,26.5" id="Path-5-Copy-2"></path>
            </g>
            <g id="hacer" transform="translate(250.000000, 193.000000)" stroke-width="3" stroke="#0000FF">
                <polygon id="Path-31" points="0.502093363 16.6165367 0.502093363 0.368792005 16.5807703 0.368792005 16.5807703 16.7326423"></polygon>
            </g>
            <g id="decir" transform="translate(249.000000, 119.500000) rotate(20.000000) translate(-249.000000, -119.500000) translate(244.000000, 104.000000)" stroke="#0000FF" stroke-width="3">
                <path d="M5.03604287,30.1375143 C-1.91236523,30.137514 -1.03691847,21.4801845 5.036043,15.0870265 C11.1090045,8.69386856 11.5443296,0.0293434246 5.03604314,0.0293434236 C-1.47224334,0.0293434227 0.147932525,7.61688904 5.03604292,15.0870268 C9.92415331,22.5571645 11.984451,30.1375145 5.03604287,30.1375143 Z" id="Path-31" transform="translate(4.951473, 15.083429) rotate(-270.000000) translate(-4.951473, -15.083429) "></path>
            </g>
            <g id="circulo" transform="translate(427.000000, 108.000000)" stroke="#0000FF" stroke-width="3">
                <path d="M67.8185477,0.107387869 C91.3455477,1.24138787 131.881548,5.49338787 142.652548,29.5883876 C153.424548,53.6823876 140.152548,88.3353876 113.739548,105.273388 C87.3265477,122.210388 52.5115477,123.414388 29.2675477,115.477388 C6.02254771,107.540388 -4.46545229,83.8133876 1.77054771,60.1023876 C8.00754771,36.3913876 10.5585477,20.8003876 31.8185477,7.19438787 C31.8185477,7.19438787 44.2905477,-1.02661213 67.8185477,0.107387869 L67.8185477,0.107387869 Z" id="icono_t0t-2-path"></path>
            </g>
            <g id="sentir" transform="translate(531.000000, 91.000000)" stroke="#0000FF" stroke-width="3">
                <path d="M8.4533064,5.28341488 C8.4533064,5.28341488 5.56614768,26.4752194 15.7830736,39.3490838" id="Path-1"></path>
                <path d="M-6.02154481,31.5779955 C-6.02154481,31.5779955 15.215248,27.5533397 20.6076243,15.3858297" id="Path-2"></path>
            </g>
            <g id="pensar" transform="translate(515.000000, 180.000000)" stroke="#0000FF" stroke-width="3">
                <path d="M13.5,28.2677008 L13.5,2.8629578" id="Path-6-Copy"></path>
                <path d="M3.5,28.2677008 L3.5,2.8629578" id="Path-6-Copy-2"></path>
                <path d="M2.72606456,16.5 L23.2533877,16.5" id="Path-5-Copy"></path>
                <path d="M2.72606456,6.5 L23.2533877,6.5" id="Path-5"></path>
                <path d="M23.5,28.2677008 L23.5,2.8629578" id="Path-6"></path>
                <path d="M2.72606456,26.5 L23.2533877,26.5" id="Path-5-Copy-2"></path>
            </g>
            <g id="hacer" transform="translate(454.000000, 199.000000)" stroke-width="3" stroke="#0000FF">
                <polygon id="Path-31" points="0.502093363 16.6165367 0.502093363 0.368792005 16.5807703 0.368792005 16.5807703 16.7326423"></polygon>
            </g>
            <g id="decir" transform="translate(449.000000, 119.500000) rotate(76.000000) translate(-449.000000, -119.500000) translate(444.000000, 104.000000)" stroke="#0000FF" stroke-width="3">
                <path d="M5.03604287,30.1375143 C-1.91236523,30.137514 -1.03691847,21.4801845 5.036043,15.0870265 C11.1090045,8.69386856 11.5443296,0.0293434246 5.03604314,0.0293434236 C-1.47224334,0.0293434227 0.147932525,7.61688904 5.03604292,15.0870268 C9.92415331,22.5571645 11.984451,30.1375145 5.03604287,30.1375143 Z" id="Path-31" transform="translate(4.951473, 15.083429) rotate(-270.000000) translate(-4.951473, -15.083429) "></path>
            </g>
            <g id="circulo" transform="translate(627.000000, 108.000000)" stroke="#0000FF" stroke-width="3">
                <path d="M67.8185477,0.107387869 C91.3455477,1.24138787 131.881548,5.49338787 142.652548,29.5883876 C153.424548,53.6823876 140.152548,88.3353876 113.739548,105.273388 C87.3265477,122.210388 52.5115477,123.414388 29.2675477,115.477388 C6.02254771,107.540388 -4.46545229,83.8133876 1.77054771,60.1023876 C8.00754771,36.3913876 10.5585477,20.8003876 31.8185477,7.19438787 C31.8185477,7.19438787 44.2905477,-1.02661213 67.8185477,0.107387869 L67.8185477,0.107387869 Z" id="icono_t0t-2-path"></path>
            </g>
            <g id="sentir" transform="translate(731.000000, 91.000000)" stroke="#0000FF" stroke-width="3">
                <path d="M8.4533064,5.28341488 C8.4533064,5.28341488 5.56614768,26.4752194 15.7830736,39.3490838" id="Path-1"></path>
                <path d="M-6.02154481,31.5779955 C-6.02154481,31.5779955 15.215248,27.5533397 20.6076243,15.3858297" id="Path-2"></path>
            </g>
            <g id="pensar" transform="translate(715.000000, 180.000000)" stroke="#0000FF" stroke-width="3">
                <path d="M13.5,28.2677008 L13.5,2.8629578" id="Path-6-Copy"></path>
                <path d="M3.5,28.2677008 L3.5,2.8629578" id="Path-6-Copy-2"></path>
                <path d="M2.72606456,16.5 L23.2533877,16.5" id="Path-5-Copy"></path>
                <path d="M2.72606456,6.5 L23.2533877,6.5" id="Path-5"></path>
                <path d="M23.5,28.2677008 L23.5,2.8629578" id="Path-6"></path>
                <path d="M2.72606456,26.5 L23.2533877,26.5" id="Path-5-Copy-2"></path>
            </g>
            <g id="hacer" transform="translate(654.000000, 205.000000)" stroke-width="3" stroke="#0000FF">
                <polygon id="Path-31" points="0.502093363 16.6165367 0.502093363 0.368792005 16.5807703 0.368792005 16.5807703 16.7326423"></polygon>
            </g>
            <g id="decir" transform="translate(649.000000, 119.500000) rotate(197.000000) translate(-649.000000, -119.500000) translate(644.000000, 104.000000)" stroke="#0000FF" stroke-width="3">
                <path d="M5.03604287,30.1375143 C-1.91236523,30.137514 -1.03691847,21.4801845 5.036043,15.0870265 C11.1090045,8.69386856 11.5443296,0.0293434246 5.03604314,0.0293434236 C-1.47224334,0.0293434227 0.147932525,7.61688904 5.03604292,15.0870268 C9.92415331,22.5571645 11.984451,30.1375145 5.03604287,30.1375143 Z" id="Path-31" transform="translate(4.951473, 15.083429) rotate(-270.000000) translate(-4.951473, -15.083429) "></path>
            </g>
            <g id="circulo" transform="translate(827.000000, 108.000000)" stroke="#0000FF" stroke-width="3">
                <path d="M67.8185477,0.107387869 C91.3455477,1.24138787 131.881548,5.49338787 142.652548,29.5883876 C153.424548,53.6823876 140.152548,88.3353876 113.739548,105.273388 C87.3265477,122.210388 52.5115477,123.414388 29.2675477,115.477388 C6.02254771,107.540388 -4.46545229,83.8133876 1.77054771,60.1023876 C8.00754771,36.3913876 10.5585477,20.8003876 31.8185477,7.19438787 C31.8185477,7.19438787 44.2905477,-1.02661213 67.8185477,0.107387869 L67.8185477,0.107387869 Z" id="icono_t0t-2-path"></path>
            </g>
            <g id="sentir" transform="translate(931.000000, 91.000000)" stroke="#0000FF" stroke-width="3">
                <path d="M8.4533064,5.28341488 C8.4533064,5.28341488 5.56614768,26.4752194 15.7830736,39.3490838" id="Path-1"></path>
                <path d="M-6.02154481,31.5779955 C-6.02154481,31.5779955 15.215248,27.5533397 20.6076243,15.3858297" id="Path-2"></path>
            </g>
            <g id="pensar" transform="translate(917.000000, 167.000000)" stroke="#0000FF" stroke-width="3">
                <path d="M13.5,28.2677008 L13.5,2.8629578" id="Path-6-Copy"></path>
                <path d="M3.5,28.2677008 L3.5,2.8629578" id="Path-6-Copy-2"></path>
                <path d="M2.72606456,16.5 L23.2533877,16.5" id="Path-5-Copy"></path>
                <path d="M2.72606456,6.5 L23.2533877,6.5" id="Path-5"></path>
                <path d="M23.5,28.2677008 L23.5,2.8629578" id="Path-6"></path>
                <path d="M2.72606456,26.5 L23.2533877,26.5" id="Path-5-Copy-2"></path>
            </g>
            <g id="hacer" transform="translate(854.000000, 199.000000)" stroke-width="3" stroke="#0000FF">
                <polygon id="Path-31" points="0.502093363 16.6165367 0.502093363 0.368792005 16.5807703 0.368792005 16.5807703 16.7326423"></polygon>
            </g>
            <g id="decir" transform="translate(849.000000, 119.500000) rotate(-83.000000) translate(-849.000000, -119.500000) translate(844.000000, 104.000000)" stroke="#0000FF" stroke-width="3">
                <path d="M5.03604287,30.1375143 C-1.91236523,30.137514 -1.03691847,21.4801845 5.036043,15.0870265 C11.1090045,8.69386856 11.5443296,0.0293434246 5.03604314,0.0293434236 C-1.47224334,0.0293434227 0.147932525,7.61688904 5.03604292,15.0870268 C9.92415331,22.5571645 11.984451,30.1375145 5.03604287,30.1375143 Z" id="Path-31" transform="translate(4.951473, 15.083429) rotate(-270.000000) translate(-4.951473, -15.083429) "></path>
            </g>
            <g id="circulo" transform="translate(1027.000000, 108.000000)" stroke="#0000FF" stroke-width="3">
                <path d="M67.8185477,0.107387869 C91.3455477,1.24138787 131.881548,5.49338787 142.652548,29.5883876 C153.424548,53.6823876 140.152548,88.3353876 113.739548,105.273388 C87.3265477,122.210388 52.5115477,123.414388 29.2675477,115.477388 C6.02254771,107.540388 -4.46545229,83.8133876 1.77054771,60.1023876 C8.00754771,36.3913876 10.5585477,20.8003876 31.8185477,7.19438787 C31.8185477,7.19438787 44.2905477,-1.02661213 67.8185477,0.107387869 L67.8185477,0.107387869 Z" id="icono_t0t-2-path"></path>
            </g>
            <g id="sentir" transform="translate(1131.000000, 91.000000)" stroke="#0000FF" stroke-width="3">
                <path d="M8.4533064,5.28341488 C8.4533064,5.28341488 5.56614768,26.4752194 15.7830736,39.3490838" id="Path-1"></path>
                <path d="M-6.02154481,31.5779955 C-6.02154481,31.5779955 15.215248,27.5533397 20.6076243,15.3858297" id="Path-2"></path>
            </g>
            <g id="pensar" transform="translate(1115.000000, 180.000000)" stroke="#0000FF" stroke-width="3">
                <path d="M13.5,28.2677008 L13.5,2.8629578" id="Path-6-Copy"></path>
                <path d="M3.5,28.2677008 L3.5,2.8629578" id="Path-6-Copy-2"></path>
                <path d="M2.72606456,16.5 L23.2533877,16.5" id="Path-5-Copy"></path>
                <path d="M2.72606456,6.5 L23.2533877,6.5" id="Path-5"></path>
                <path d="M23.5,28.2677008 L23.5,2.8629578" id="Path-6"></path>
                <path d="M2.72606456,26.5 L23.2533877,26.5" id="Path-5-Copy-2"></path>
            </g>
            <g id="hacer" transform="translate(1054.000000, 194.000000)" stroke-width="3" stroke="#0000FF">
                <polygon id="Path-31" points="0.502093363 16.6165367 0.502093363 0.368792005 16.5807703 0.368792005 16.5807703 16.7326423"></polygon>
            </g>
            <g id="decir" transform="translate(1049.000000, 119.500000) rotate(31.000000) translate(-1049.000000, -119.500000) translate(1044.000000, 104.000000)" stroke="#0000FF" stroke-width="3">
                <path d="M5.03604287,30.1375143 C-1.91236523,30.137514 -1.03691847,21.4801845 5.036043,15.0870265 C11.1090045,8.69386856 11.5443296,0.0293434246 5.03604314,0.0293434236 C-1.47224334,0.0293434227 0.147932525,7.61688904 5.03604292,15.0870268 C9.92415331,22.5571645 11.984451,30.1375145 5.03604287,30.1375143 Z" id="Path-31" transform="translate(4.951473, 15.083429) rotate(-270.000000) translate(-4.951473, -15.083429) "></path>
            </g>
        </g>
    </g>
</svg>