<?xml version="1.0" encoding="UTF-8" standalone="no"?>
<svg width="1150px" height="130px" viewBox="0 0 1150 130" version="1.1" xmlns="http://www.w3.org/2000/svg" xmlns:xlink="http://www.w3.org/1999/xlink">
    <!-- Generator: Sketch 3.8.3 (29802) - http://www.bohemiancoding.com/sketch -->
    <title>anim_sentir</title>
    <desc>Created with Sketch.</desc>
    <defs></defs>
    <g id="Page-1" stroke="none" stroke-width="1" fill="none" fill-rule="evenodd">
        <g id="anim_sentir" transform="translate(2.000000, 2.000000)" stroke="#0000FF" stroke-width="3">
            <g id="sentir" transform="translate(274.000000, 49.000000)">
                <path d="M8.4533064,5.28341488 C8.4533064,5.28341488 5.56614768,26.4752194 15.7830736,39.3490838" id="Path-1"></path>
                <path d="M-6.02154481,31.5779955 C-6.02154481,31.5779955 15.215248,27.5533397 20.6076243,15.3858297" id="Path-2"></path>
            </g>
            <g id="pensar" transform="translate(685.000000, 54.000000)">
                <path d="M13.5,28.2677008 L13.5,2.8629578" id="Path-6-Copy"></path>
                <path d="M3.5,28.2677008 L3.5,2.8629578" id="Path-6-Copy-2"></path>
                <path d="M2.72606456,16.5 L23.2533877,16.5" id="Path-5-Copy"></path>
                <path d="M2.72606456,6.5 L23.2533877,6.5" id="Path-5"></path>
                <path d="M23.5,28.2677008 L23.5,2.8629578" id="Path-6"></path>
                <path d="M2.72606456,26.5 L23.2533877,26.5" id="Path-5-Copy-2"></path>
            </g>
            <g id="hacer" transform="translate(32.000000, 0.000000)">
                <polygon id="Path-31" points="0.502093363 16.6165367 0.502093363 0.368792005 16.5807703 0.368792005 16.5807703 16.7326423"></polygon>
            </g>
            <g id="decir" transform="translate(900.000000, 42.000000)">
                <path d="M5.03604287,30.1375143 C-1.91236523,30.137514 -1.03691847,21.4801845 5.036043,15.0870265 C11.1090045,8.69386856 11.5443296,0.0293434246 5.03604314,0.0293434236 C-1.47224334,0.0293434227 0.147932525,7.61688904 5.03604292,15.0870268 C9.92415331,22.5571645 11.984451,30.1375145 5.03604287,30.1375143 Z" id="Path-31" transform="translate(4.951473, 15.083429) rotate(-270.000000) translate(-4.951473, -15.083429) "></path>
            </g>
            <g id="Group" transform="translate(469.000000, 41.000000)">
                <g id="sentir">
                    <path d="M8.4533064,5.28341488 C8.4533064,5.28341488 5.56614768,26.4752194 15.7830736,39.3490838" id="Path-1"></path>
                    <path d="M-6.02154481,31.5779955 C-6.02154481,31.5779955 15.215248,27.5533397 20.6076243,15.3858297" id="Path-2"></path>
                </g>
                <g id="pensar" transform="translate(585.000000, 10.000000)">
                    <path d="M13.5,28.2677008 L13.5,2.8629578" id="Path-6-Copy"></path>
                    <path d="M3.5,28.2677008 L3.5,2.8629578" id="Path-6-Copy-2"></path>
                    <path d="M2.72606456,16.5 L23.2533877,16.5" id="Path-5-Copy"></path>
                    <path d="M2.72606456,6.5 L23.2533877,6.5" id="Path-5"></path>
                    <path d="M23.5,28.2677008 L23.5,2.8629578" id="Path-6"></path>
                    <path d="M2.72606456,26.5 L23.2533877,26.5" id="Path-5-Copy-2"></path>
                </g>
                <g id="hacer" transform="translate(611.000000, 53.095238)">
                    <polygon id="Path-31" points="0.502093363 16.6165367 0.502093363 0.368792005 16.5807703 0.368792005 16.5807703 16.7326423"></polygon>
                </g>
            </g>
            <g id="decir" transform="translate(1100.268927, 49.861284) rotate(31.000000) translate(-1100.268927, -49.861284) translate(1095.268927, 34.361284)">
                <path d="M5.03604287,30.1375143 C-1.91236523,30.137514 -1.03691847,21.4801845 5.036043,15.0870265 C11.1090045,8.69386856 11.5443296,0.0293434246 5.03604314,0.0293434236 C-1.47224334,0.0293434227 0.147932525,7.61688904 5.03604292,15.0870268 C9.92415331,22.5571645 11.984451,30.1375145 5.03604287,30.1375143 Z" id="Path-31" transform="translate(4.951473, 15.083429) rotate(-270.000000) translate(-4.951473, -15.083429) "></path>
            </g>
            <path d="M142.652548,35.5883876 C153.424548,59.6823876 140.152548,94.3353876 113.739548,111.273388 C87.3265477,128.210388 52.5115477,129.414388 29.2675477,121.477388 C6.02254771,113.540388 -4.46545229,89.8133876 1.77054771,66.1023876 C8.00754771,42.3913876 10.5585477,26.8003876 31.8185477,13.1943879 C31.8185477,13.1943879 44.2905477,4.97338787 67.8185477,6.10738787 C91.3455477,7.24138787 131.881548,11.4933879 142.652548,35.5883876 Z" id="icono_t0t-2-path" stroke-linecap="square" stroke-linejoin="round"></path>
            <path d="M342.652548,35.5883876 C353.424548,59.6823876 351.991125,87.062 325.578125,104 C299.165125,120.937 252.511548,127.414388 229.267548,119.477388 C206.022548,111.540388 198.534548,89.8133876 204.770548,66.1023876 C211.007548,42.3913876 210.558548,26.8003876 231.818548,13.1943879 C231.818548,13.1943879 246.290548,8.97338787 269.818548,10.1073879 C293.345548,11.2413879 331.881548,11.4933879 342.652548,35.5883876 Z" id="icono_t0t-2-path-copy" stroke-linecap="square" stroke-linejoin="round"></path>
            <path d="M1139.98391,35.5883876 C1150.75591,59.6823876 1149.32248,87.062 1122.90948,104 C1096.49648,120.937 1049.84291,127.414388 1026.59891,119.477388 C1003.35391,111.540388 995.865907,89.8133876 1002.10191,66.1023876 C1008.33891,42.3913876 1007.88991,26.8003876 1029.14991,13.1943879 C1029.14991,13.1943879 1043.62191,8.97338787 1067.14991,10.1073879 C1090.67691,11.2413879 1129.21291,11.4933879 1139.98391,35.5883876 Z" id="icono_t0t-2-path-copy-5" stroke-linecap="square" stroke-linejoin="round"></path>
            <path d="M559.983907,29.5883876 C570.755907,53.6823876 569.322484,81.062 542.909484,98 C516.496484,114.937 469.842907,121.414388 446.598907,113.477388 C423.353907,105.540388 405.865907,89.8133876 412.101907,66.1023876 C418.338907,42.3913876 407.889907,33.8003876 429.149907,20.1943879 C429.149907,20.1943879 463.621907,2.97338787 487.149907,4.10738787 C510.676907,5.24138787 549.212907,5.49338787 559.983907,29.5883876 Z" id="icono_t0t-2-path-copy-2" stroke-linecap="square" stroke-linejoin="round"></path>
            <path d="M769.983907,29.5883876 C780.755907,53.6823876 779.322484,81.062 752.909484,98 C726.496484,114.937 692.842907,121.414388 669.598907,113.477388 C646.353907,105.540388 628.865907,89.8133876 635.101907,66.1023876 C641.338907,42.3913876 630.889907,33.8003876 652.149907,20.1943879 C652.149907,20.1943879 673.621907,2.97338787 697.149907,4.10738787 C720.676907,5.24138787 759.212907,5.49338787 769.983907,29.5883876 Z" id="icono_t0t-2-path-copy-3" stroke-linecap="square" stroke-linejoin="round"></path>
            <path d="M969.983907,29.5883876 C980.755907,53.6823876 979.322484,81.062 952.909484,98 C926.496484,114.937 892.842907,121.414388 869.598907,113.477388 C846.353907,105.540388 818.865907,89.8133876 825.101907,66.1023876 C831.338907,42.3913876 830.889907,33.8003876 852.149907,20.1943879 C852.149907,20.1943879 873.621907,2.97338787 897.149907,4.10738787 C920.676907,5.24138787 959.212907,5.49338787 969.983907,29.5883876 Z" id="icono_t0t-2-path-copy-4" stroke-linecap="square" stroke-linejoin="round"></path>
        </g>
    </g>
</svg>