<?xml version="1.0" encoding="UTF-8" standalone="no"?>
<svg width="1200px" height="200px" viewBox="0 0 1200 200" version="1.1" xmlns="http://www.w3.org/2000/svg" xmlns:xlink="http://www.w3.org/1999/xlink">
    <!-- Generator: Sketch 3.8.3 (29802) - http://www.bohemiancoding.com/sketch -->
    <title>anim_sentir</title>
    <desc>Created with Sketch.</desc>
    <defs></defs>
    <g id="Page-1" stroke="none" stroke-width="1" fill="none" fill-rule="evenodd">
        <g id="anim_sentir">
            <rect id="Rectangle-1" fill="#FFFFFF" x="0" y="0" width="1200" height="200"></rect>
            <g id="sentir" transform="translate(246.000000, 92.000000)" stroke-width="3" stroke="#0000FF">
                <polygon id="Path-31" points="5.87695312 26.4584961 16.0393381 11.8017578 24.9804688 26.4584961 16.0393381 41.1152344"></polygon>
            </g>
            <g id="pensar" transform="translate(720.000000, 109.000000)" stroke="#0000FF" stroke-width="3">
                <path d="M13.6733401,18.8291012 C13.6733401,18.8291012 12.9599609,15.4399414 16.5473633,15.4399414 C20.1347656,15.4399414 19.5595703,19.1577148 19.5595703,19.1577148 C19.5595703,19.1577148 19.1743166,23.6142574 15.5000003,24.4999996 C11.8256839,25.3857418 5.41357422,25.1513672 4.84912109,18.8291016 C4.28466797,12.5068359 6.02769921,9.64160156 9.09814453,6.8203125 C12.1685898,3.99902344 20.3862312,3.98876932 24.5917969,8.28076172 C28.7973626,12.5727541 29.0141602,13.8212891 29.0141602,13.8212891" id="Path-5"></path>
            </g>
            <g id="decir" transform="translate(676.000000, 58.000000)" stroke="#0000FF" stroke-width="3">
                <path d="M20.4427978,36.2841674 C8.89885287,36.2841674 2.10588386,20.0086109 8.8988529,11.3398303 C15.6918219,2.67104977 33.1058849,-0.847669841 37.107838,13.3613147 C41.1097911,27.5702992 31.9867427,36.2841674 20.4427978,36.2841674 Z" id="Path-31" transform="translate(22.129107, 20.023223) rotate(-270.000000) translate(-22.129107, -20.023223) "></path>
                <path d="M23.5,35.5195312 L23.5,69.5" id="Path-5"></path>
                <path d="M-12,69 L58.2363281,69" id="Path-5-Copy"></path>
            </g>
            <g id="decir" transform="translate(472.000000, 53.000000)" stroke="#0000FF" stroke-width="3">
                <path d="M20.4427978,36.2841674 C8.89885287,36.2841674 2.10588386,20.0086109 8.8988529,11.3398303 C15.6918219,2.67104977 33.1058849,-0.847669841 37.107838,13.3613147 C41.1097911,27.5702992 31.9867427,36.2841674 20.4427978,36.2841674 Z" id="Path-31" transform="translate(22.129107, 20.023223) rotate(-270.000000) translate(-22.129107, -20.023223) "></path>
                <path d="M23.5,35.5195312 L23.5,69.5" id="Path-5"></path>
                <path d="M-12,69 L58.2363281,69" id="Path-5-Copy"></path>
            </g>
            <g id="decir" transform="translate(276.000000, 50.000000)" stroke="#0000FF" stroke-width="3">
                <path d="M20.4427978,36.2841674 C8.89885287,36.2841674 2.10588386,20.0086109 8.8988529,11.3398303 C15.6918219,2.67104977 33.1058849,-0.847669841 37.107838,13.3613147 C41.1097911,27.5702992 31.9867427,36.2841674 20.4427978,36.2841674 Z" id="Path-31" transform="translate(22.129107, 20.023223) rotate(-270.000000) translate(-22.129107, -20.023223) "></path>
                <path d="M23.5,35.5195312 L23.5,69.5" id="Path-5"></path>
                <path d="M-12,69 L58.2363281,69" id="Path-5-Copy"></path>
            </g>
            <g id="decir" transform="translate(73.000000, 50.000000)" stroke="#0000FF" stroke-width="3">
                <path d="M20.4427978,36.2841674 C8.89885287,36.2841674 2.10588386,20.0086109 8.8988529,11.3398303 C15.6918219,2.67104977 33.1058849,-0.847669841 37.107838,13.3613147 C41.1097911,27.5702992 31.9867427,36.2841674 20.4427978,36.2841674 Z" id="Path-31" transform="translate(22.129107, 20.023223) rotate(-270.000000) translate(-22.129107, -20.023223) "></path>
                <path d="M23.5,35.5195312 L23.5,69.5" id="Path-5"></path>
                <path d="M-12,69 L58.2363281,69" id="Path-5-Copy"></path>
            </g>
            <g id="hacer" transform="translate(681.000000, 119.000000)" stroke-width="3" stroke="#0000FF">
                <polygon id="Path-31" points="12 50.2477447 10 36 26.078677 36 28.078677 50.3638503"></polygon>
                <path d="M17.5,2 L17.5,35.9804688" id="Path-5"></path>
            </g>
            <g id="hacer" transform="translate(881.000000, 87.000000)" stroke-width="3" stroke="#0000FF">
                <polygon id="Path-31" points="12 50.2477447 10 36 26.078677 36 28.078677 50.3638503"></polygon>
                <path d="M17.5,2 L17.5,35.9804688" id="Path-5"></path>
            </g>
            <g id="pensar" transform="translate(521.000000, 110.000000)" stroke="#0000FF" stroke-width="3">
                <path d="M13.6733401,18.8291012 C13.6733401,18.8291012 12.9599609,15.4399414 16.5473633,15.4399414 C20.1347656,15.4399414 19.5595703,19.1577148 19.5595703,19.1577148 C19.5595703,19.1577148 19.1743166,23.6142574 15.5000003,24.4999996 C11.8256839,25.3857418 5.41357422,25.1513672 4.84912109,18.8291016 C4.28466797,12.5068359 6.02769921,9.64160156 9.09814453,6.8203125 C12.1685898,3.99902344 20.3862312,3.98876932 24.5917969,8.28076172 C28.7973626,12.5727541 29.0141602,13.8212891 29.0141602,13.8212891" id="Path-5"></path>
            </g>
            <g id="hacer" transform="translate(478.000000, 95.000000)" stroke-width="3" stroke="#0000FF">
                <polygon id="Path-31" points="12 50.2477447 10 36 26.078677 36 28.078677 50.3638503"></polygon>
                <path d="M17.5,2 L17.5,35.9804688" id="Path-5"></path>
            </g>
            <g id="pensar" transform="translate(327.000000, 105.000000)" stroke="#0000FF" stroke-width="3">
                <path d="M13.6733401,18.8291012 C13.6733401,18.8291012 12.9599609,15.4399414 16.5473633,15.4399414 C20.1347656,15.4399414 19.5595703,19.1577148 19.5595703,19.1577148 C19.5595703,19.1577148 19.1743166,23.6142574 15.5000003,24.4999996 C11.8256839,25.3857418 5.41357422,25.1513672 4.84912109,18.8291016 C4.28466797,12.5068359 6.02769921,9.64160156 9.09814453,6.8203125 C12.1685898,3.99902344 20.3862312,3.98876932 24.5917969,8.28076172 C28.7973626,12.5727541 29.0141602,13.8212891 29.0141602,13.8212891" id="Path-5"></path>
            </g>
            <g id="pensar" transform="translate(126.000000, 107.000000)" stroke="#0000FF" stroke-width="3">
                <path d="M13.6733401,18.8291012 C13.6733401,18.8291012 12.9599609,15.4399414 16.5473633,15.4399414 C20.1347656,15.4399414 19.5595703,19.1577148 19.5595703,19.1577148 C19.5595703,19.1577148 19.1743166,23.6142574 15.5000003,24.4999996 C11.8256839,25.3857418 5.41357422,25.1513672 4.84912109,18.8291016 C4.28466797,12.5068359 6.02769921,9.64160156 9.09814453,6.8203125 C12.1685898,3.99902344 20.3862312,3.98876932 24.5917969,8.28076172 C28.7973626,12.5727541 29.0141602,13.8212891 29.0141602,13.8212891" id="Path-5"></path>
            </g>
            <g id="hacer" transform="translate(281.000000, 104.000000)" stroke-width="3" stroke="#0000FF">
                <polygon id="Path-31" points="12 50.2477447 10 36 26.078677 36 28.078677 50.3638503"></polygon>
                <path d="M17.5,2 L17.5,35.9804688" id="Path-5"></path>
            </g>
            <g id="sentir" transform="translate(646.000000, 97.000000)" stroke-width="3" stroke="#0000FF">
                <polygon id="Path-31" points="5.87695312 26.4584961 16.0393381 11.8017578 24.9804688 26.4584961 16.0393381 41.1152344"></polygon>
            </g>
            <g id="sentir" transform="translate(845.000000, 86.000000)" stroke-width="3" stroke="#0000FF">
                <polygon id="Path-31" points="5.87695312 26.4584961 16.0393381 11.8017578 24.9804688 26.4584961 16.0393381 41.1152344"></polygon>
            </g>
            <g id="sentir" transform="translate(1044.000000, 86.000000)" stroke-width="3" stroke="#0000FF">
                <polygon id="Path-31" points="5.87695312 26.4584961 16.0393381 11.8017578 24.9804688 26.4584961 16.0393381 41.1152344"></polygon>
            </g>
            <g id="decir" transform="translate(876.000000, 46.000000)" stroke="#0000FF" stroke-width="3">
                <path d="M20.4427978,36.2841674 C8.89885287,36.2841674 2.10588386,20.0086109 8.8988529,11.3398303 C15.6918219,2.67104977 33.1058849,-0.847669841 37.107838,13.3613147 C41.1097911,27.5702992 31.9867427,36.2841674 20.4427978,36.2841674 Z" id="Path-31" transform="translate(22.129107, 20.023223) rotate(-270.000000) translate(-22.129107, -20.023223) "></path>
                <path d="M23.5,35.5195312 L23.5,69.5" id="Path-5"></path>
                <path d="M-12,69 L58.2363281,69" id="Path-5-Copy"></path>
            </g>
            <g id="decir" transform="translate(1075.000000, 51.000000)" stroke="#0000FF" stroke-width="3">
                <path d="M20.4427978,36.2841674 C8.89885287,36.2841674 2.10588386,20.0086109 8.8988529,11.3398303 C15.6918219,2.67104977 33.1058849,-0.847669841 37.107838,13.3613147 C41.1097911,27.5702992 31.9867427,36.2841674 20.4427978,36.2841674 Z" id="Path-31" transform="translate(22.129107, 20.023223) rotate(-270.000000) translate(-22.129107, -20.023223) "></path>
                <path d="M23.5,35.5195312 L23.5,69.5" id="Path-5"></path>
                <path d="M-12,69 L58.2363281,69" id="Path-5-Copy"></path>
            </g>
            <g id="sentir" transform="translate(439.000000, 97.000000)" stroke-width="3" stroke="#0000FF">
                <polygon id="Path-31" points="5.87695312 26.4584961 16.0393381 11.8017578 24.9804688 26.4584961 16.0393381 41.1152344"></polygon>
            </g>
            <g id="pensar" transform="translate(1120.000000, 103.000000)" stroke="#0000FF" stroke-width="3">
                <path d="M13.6733401,18.8291012 C13.6733401,18.8291012 12.9599609,15.4399414 16.5473633,15.4399414 C20.1347656,15.4399414 19.5595703,19.1577148 19.5595703,19.1577148 C19.5595703,19.1577148 19.1743166,23.6142574 15.5000003,24.4999996 C11.8256839,25.3857418 5.41357422,25.1513672 4.84912109,18.8291016 C4.28466797,12.5068359 6.02769921,9.64160156 9.09814453,6.8203125 C12.1685898,3.99902344 20.3862312,3.98876932 24.5917969,8.28076172 C28.7973626,12.5727541 29.0141602,13.8212891 29.0141602,13.8212891" id="Path-5"></path>
            </g>
            <g id="pensar" transform="translate(919.000000, 98.000000)" stroke="#0000FF" stroke-width="3">
                <path d="M13.6733401,18.8291012 C13.6733401,18.8291012 12.9599609,15.4399414 16.5473633,15.4399414 C20.1347656,15.4399414 19.5595703,19.1577148 19.5595703,19.1577148 C19.5595703,19.1577148 19.1743166,23.6142574 15.5000003,24.4999996 C11.8256839,25.3857418 5.41357422,25.1513672 4.84912109,18.8291016 C4.28466797,12.5068359 6.02769921,9.64160156 9.09814453,6.8203125 C12.1685898,3.99902344 20.3862312,3.98876932 24.5917969,8.28076172 C28.7973626,12.5727541 29.0141602,13.8212891 29.0141602,13.8212891" id="Path-5"></path>
            </g>
            <g id="hacer" transform="translate(1081.000000, 110.000000)" stroke-width="3" stroke="#0000FF">
                <polygon id="Path-31" points="12 50.2477447 10 36 26.078677 36 28.078677 50.3638503"></polygon>
                <path d="M17.5,2 L17.5,35.9804688" id="Path-5"></path>
            </g>
            <path d="M169.652548,71.5883876 C180.424548,95.6823876 167.152548,130.335388 140.739548,147.273388 C114.326548,164.210388 79.5115477,165.414388 56.2675477,157.477388 C33.0225477,149.540388 22.5345477,125.813388 28.7705477,102.102388 C35.0075477,78.3913876 37.5585477,62.8003876 58.8185477,49.1943879 C58.8185477,49.1943879 71.2905477,40.9733879 94.8185477,42.1073879 C118.345548,43.2413879 158.881548,47.4933879 169.652548,71.5883876 Z" id="icono_t0t-2-path" stroke="#0000FF" stroke-width="3" stroke-linecap="square" stroke-linejoin="round"></path>
            <path d="M369.652548,71.5883876 C380.424548,95.6823876 367.152548,130.335388 340.739548,147.273388 C314.326548,164.210388 279.511548,165.414388 256.267548,157.477388 C233.022548,149.540388 222.534548,125.813388 228.770548,102.102388 C235.007548,78.3913876 237.558548,62.8003876 258.818548,49.1943879 C258.818548,49.1943879 271.290548,40.9733879 294.818548,42.1073879 C318.345548,43.2413879 358.881548,47.4933879 369.652548,71.5883876 Z" id="icono_t0t-2-path" stroke="#0000FF" stroke-width="3" stroke-linecap="square" stroke-linejoin="round"></path>
            <path d="M569.652548,71.5883876 C580.424548,95.6823876 567.152548,130.335388 540.739548,147.273388 C514.326548,164.210388 479.511548,165.414388 456.267548,157.477388 C433.022548,149.540388 422.534548,125.813388 428.770548,102.102388 C435.007548,78.3913876 437.558548,62.8003876 458.818548,49.1943879 C458.818548,49.1943879 471.290548,40.9733879 494.818548,42.1073879 C518.345548,43.2413879 558.881548,47.4933879 569.652548,71.5883876 Z" id="icono_t0t-2-path-copy" stroke="#0000FF" stroke-width="3" stroke-linecap="square" stroke-linejoin="round"></path>
            <path d="M769.652548,71.5883876 C780.424548,95.6823876 767.152548,130.335388 740.739548,147.273388 C714.326548,164.210388 679.511548,165.414388 656.267548,157.477388 C633.022548,149.540388 622.534548,125.813388 628.770548,102.102388 C635.007548,78.3913876 637.558548,62.8003876 658.818548,49.1943879 C658.818548,49.1943879 671.290548,40.9733879 694.818548,42.1073879 C718.345548,43.2413879 758.881548,47.4933879 769.652548,71.5883876 Z" id="icono_t0t-2-path-copy-2" stroke="#0000FF" stroke-width="3" stroke-linecap="square" stroke-linejoin="round"></path>
            <path d="M969.652548,71.5883876 C980.424548,95.6823876 967.152548,130.335388 940.739548,147.273388 C914.326548,164.210388 879.511548,165.414388 856.267548,157.477388 C833.022548,149.540388 822.534548,125.813388 828.770548,102.102388 C835.007548,78.3913876 837.558548,62.8003876 858.818548,49.1943879 C858.818548,49.1943879 871.290548,40.9733879 894.818548,42.1073879 C918.345548,43.2413879 958.881548,47.4933879 969.652548,71.5883876 Z" id="icono_t0t-2-path-copy-3" stroke="#0000FF" stroke-width="3" stroke-linecap="square" stroke-linejoin="round"></path>
            <path d="M1169.65255,71.5883876 C1180.42455,95.6823876 1167.15255,130.335388 1140.73955,147.273388 C1114.32655,164.210388 1079.51155,165.414388 1056.26755,157.477388 C1033.02255,149.540388 1022.53455,125.813388 1028.77055,102.102388 C1035.00755,78.3913876 1037.55855,62.8003876 1058.81855,49.1943879 C1058.81855,49.1943879 1071.29055,40.9733879 1094.81855,42.1073879 C1118.34555,43.2413879 1158.88155,47.4933879 1169.65255,71.5883876 Z" id="icono_t0t-2-path-copy-4" stroke="#0000FF" stroke-width="3" stroke-linecap="square" stroke-linejoin="round"></path>
            <g id="sentir" transform="translate(38.000000, 93.000000)" stroke-width="3" stroke="#0000FF">
                <polygon id="Path-31" points="5.87695312 26.4584961 16.0393381 11.8017578 24.9804688 26.4584961 16.0393381 41.1152344"></polygon>
            </g>
            <g id="hacer" transform="translate(79.000000, 97.000000)" stroke-width="3" stroke="#0000FF">
                <polygon id="Path-31" points="12 50.2477447 10 36 26.078677 36 28.078677 50.3638503"></polygon>
                <path d="M17.5,2 L17.5,35.9804688" id="Path-5"></path>
            </g>
            <path d="M1200,199.5 L0,199.5" id="Line" stroke="#FFFFFF"></path>
        </g>
    </g>
</svg>