<?xml version="1.0" encoding="UTF-8" standalone="no"?>
<svg width="1200px" height="200px" viewBox="0 0 1200 200" version="1.1" xmlns="http://www.w3.org/2000/svg" xmlns:xlink="http://www.w3.org/1999/xlink">
    <!-- Generator: Sketch 3.8.3 (29802) - http://www.bohemiancoding.com/sketch -->
    <title>anim_sentir</title>
    <desc>Created with Sketch.</desc>
    <defs></defs>
    <g id="Page-1" stroke="none" stroke-width="1" fill="none" fill-rule="evenodd">
        <g id="anim_sentir">
            <rect id="Rectangle-1" fill="#FFFFFF" x="0" y="0" width="1200" height="200"></rect>
            <path d="M173.826618,86.8242185 C173.826618,86.8242185 164.962108,86.495179 164.082477,100.571808 C163.202846,114.648437 169.649269,114.648438 169.649269,114.648438" id="Path-5-Copy-24" stroke="#0000FF" stroke-width="3"></path>
            <path d="M369.554145,73.2070311 C369.554145,73.2070311 355.933774,73.2081345 355.054143,99.1685203 C354.174512,125.128906 364.304143,125.128906 364.304143,125.128906" id="Path-5-Copy-4" stroke="#0000FF" stroke-width="3"></path>
            <path d="M373.826618,86.8242185 C373.826618,86.8242185 364.962108,86.495179 364.082477,100.571808 C363.202846,114.648437 369.649269,114.648438 369.649269,114.648438" id="Path-5-Copy-26" stroke="#0000FF" stroke-width="3"></path>
            <path d="M569.554145,73.2070311 C569.554145,73.2070311 555.933774,73.2081345 555.054143,99.1685203 C554.174512,125.128906 564.304143,125.128906 564.304143,125.128906" id="Path-5-Copy-4" stroke="#0000FF" stroke-width="3"></path>
            <path d="M573.826618,86.8242185 C573.826618,86.8242185 564.962108,86.495179 564.082477,100.571808 C563.202846,114.648437 569.649269,114.648438 569.649269,114.648438" id="Path-5-Copy-26" stroke="#0000FF" stroke-width="3" opacity="0.5"></path>
            <path d="M561.818102,64.0585936 C561.818102,64.0585936 544.947733,70.6118797 544.068102,96.5722655 C543.188471,122.532651 551.120691,135.085937 551.120691,135.085937" id="Path-5-Copy-27" stroke="#0000FF" stroke-width="3"></path>
            <path d="M769.554145,73.2070311 C769.554145,73.2070311 755.933774,73.2081345 755.054143,99.1685203 C754.174512,125.128906 764.304143,125.128906 764.304143,125.128906" id="Path-5-Copy-4" stroke="#0000FF" stroke-width="3" opacity="0.5"></path>
            <path d="M761.818102,64.0585936 C761.818102,64.0585936 744.947733,70.6118797 744.068102,96.5722655 C743.188471,122.532651 751.120691,135.085937 751.120691,135.085937" id="Path-5-Copy-27" stroke="#0000FF" stroke-width="3"></path>
            <path d="M740.587617,44.7460936 C740.587617,44.7460936 715.901098,55.6367186 715.021467,94.0585936 C714.141836,132.480469 740.587617,155.701172 740.587617,155.701172" id="Path-5-Copy-28" stroke="#0000FF" stroke-width="3"></path>
            <g id="Group" transform="translate(865.000000, 21.000000)" stroke="#0000FF" stroke-width="3">
                <path d="M75.587617,23.7460936 C75.587617,23.7460936 50.9010977,34.6367186 50.0214668,73.0585936 C49.141836,111.480469 75.587617,134.701172 75.587617,134.701172" id="Path-5-Copy-29"></path>
                <path d="M35,0.249999897 C35,0.249999897 0.901097621,21.2734374 0.0214668255,73.0585936 C-0.85816397,124.84375 35.0000012,155.154297 35.0000012,155.154297" id="Path-5-Copy-30"></path>
                <path d="M96.8181023,43.0585936 C96.8181023,43.0585936 79.9477326,49.6118797 79.0681018,75.5722655 C78.188471,101.532651 86.1206905,114.085937 86.1206905,114.085937" id="Path-5-Copy-27" opacity="0.5"></path>
            </g>
            <path d="M1090,21.2499999 C1090,21.2499999 1055.9011,42.2734374 1055.02147,94.0585936 C1054.14184,145.84375 1090,176.154297 1090,176.154297" id="Path-5-Copy-30" stroke="#0000FF" stroke-width="3" opacity="0.5"></path>
            <path d="M169.652548,71.5883876 C180.424548,95.6823876 167.152548,130.335388 140.739548,147.273388 C114.326548,164.210388 79.5115477,165.414388 56.2675477,157.477388 C33.0225477,149.540388 22.5345477,125.813388 28.7705477,102.102388 C35.0075477,78.3913876 37.5585477,62.8003876 58.8185477,49.1943879 C58.8185477,49.1943879 71.2905477,40.9733879 94.8185477,42.1073879 C118.345548,43.2413879 158.881548,47.4933879 169.652548,71.5883876 Z" id="icono_t0t-2-path" stroke="#0000FF" stroke-width="3" stroke-linecap="square" stroke-linejoin="round"></path>
            <path d="M369.652548,71.5883876 C380.424548,95.6823876 367.152548,130.335388 340.739548,147.273388 C314.326548,164.210388 279.511548,165.414388 256.267548,157.477388 C233.022548,149.540388 222.534548,125.813388 228.770548,102.102388 C235.007548,78.3913876 237.558548,62.8003876 258.818548,49.1943879 C258.818548,49.1943879 271.290548,40.9733879 294.818548,42.1073879 C318.345548,43.2413879 358.881548,47.4933879 369.652548,71.5883876 Z" id="icono_t0t-2-path" stroke="#0000FF" stroke-width="3" stroke-linecap="square" stroke-linejoin="round"></path>
            <path d="M569.652548,71.5883876 C580.424548,95.6823876 567.152548,130.335388 540.739548,147.273388 C514.326548,164.210388 479.511548,165.414388 456.267548,157.477388 C433.022548,149.540388 422.534548,125.813388 428.770548,102.102388 C435.007548,78.3913876 437.558548,62.8003876 458.818548,49.1943879 C458.818548,49.1943879 471.290548,40.9733879 494.818548,42.1073879 C518.345548,43.2413879 558.881548,47.4933879 569.652548,71.5883876 Z" id="icono_t0t-2-path-copy" stroke="#0000FF" stroke-width="3" stroke-linecap="square" stroke-linejoin="round"></path>
            <path d="M769.652548,71.5883876 C780.424548,95.6823876 767.152548,130.335388 740.739548,147.273388 C714.326548,164.210388 679.511548,165.414388 656.267548,157.477388 C633.022548,149.540388 622.534548,125.813388 628.770548,102.102388 C635.007548,78.3913876 637.558548,62.8003876 658.818548,49.1943879 C658.818548,49.1943879 671.290548,40.9733879 694.818548,42.1073879 C718.345548,43.2413879 758.881548,47.4933879 769.652548,71.5883876 Z" id="icono_t0t-2-path-copy-2" stroke="#0000FF" stroke-width="3" stroke-linecap="square" stroke-linejoin="round"></path>
            <path d="M969.652548,71.5883876 C980.424548,95.6823876 967.152548,130.335388 940.739548,147.273388 C914.326548,164.210388 879.511548,165.414388 856.267548,157.477388 C833.022548,149.540388 822.534548,125.813388 828.770548,102.102388 C835.007548,78.3913876 837.558548,62.8003876 858.818548,49.1943879 C858.818548,49.1943879 871.290548,40.9733879 894.818548,42.1073879 C918.345548,43.2413879 958.881548,47.4933879 969.652548,71.5883876 Z" id="icono_t0t-2-path-copy-3" stroke="#0000FF" stroke-width="3" stroke-linecap="square" stroke-linejoin="round"></path>
            <path d="M1169.65255,71.5883876 C1180.42455,95.6823876 1167.15255,130.335388 1140.73955,147.273388 C1114.32655,164.210388 1079.51155,165.414388 1056.26755,157.477388 C1033.02255,149.540388 1022.53455,125.813388 1028.77055,102.102388 C1035.00755,78.3913876 1037.55855,62.8003876 1058.81855,49.1943879 C1058.81855,49.1943879 1071.29055,40.9733879 1094.81855,42.1073879 C1118.34555,43.2413879 1158.88155,47.4933879 1169.65255,71.5883876 Z" id="icono_t0t-2-path-copy-4" stroke="#0000FF" stroke-width="3" stroke-linecap="square" stroke-linejoin="round"></path>
            <path d="M1200,199.5 L0,199.5" id="Line" stroke="#FFFFFF"></path>
        </g>
    </g>
</svg>