<?xml version="1.0" encoding="UTF-8" standalone="no"?>
<svg width="1200px" height="200px" viewBox="0 0 1200 200" version="1.1" xmlns="http://www.w3.org/2000/svg" xmlns:xlink="http://www.w3.org/1999/xlink">
    <!-- Generator: Sketch 3.8.3 (29802) - http://www.bohemiancoding.com/sketch -->
    <title>anim_sentir</title>
    <desc>Created with Sketch.</desc>
    <defs></defs>
    <g id="Page-1" stroke="none" stroke-width="1" fill="none" fill-rule="evenodd">
        <g id="anim_sentir">
            <rect id="Rectangle-1" fill="#FFFFFF" x="0" y="0" width="1200" height="200"></rect>
            <g id="sentir" transform="translate(254.000000, 61.000000)" stroke="#0000FF" stroke-width="3">
                <path d="M13.4533064,5.28341488 C13.4533064,5.28341488 10.5661477,26.4752194 20.7830736,39.3490838" id="Path-1"></path>
                <path d="M-1.02154481,31.5779955 C-1.02154481,31.5779955 20.215248,27.5533397 25.6076243,15.3858297" id="Path-2"></path>
            </g>
            <g id="pensar" transform="translate(685.000000, 23.000000)" stroke="#0000FF" stroke-width="3">
                <path d="M2.72606456,6.5 C4.89951949,11.405702 13.3265449,14.094298 15.4999999,19 C17.5845234,23.7049751 15.4999999,35.3320312 15.4999999,35.3320312" id="Path-5"></path>
                <path d="M8.72606456,4.5 C10.8995195,9.40570203 19.3265449,12.094298 21.4999999,17 C23.5845234,21.7049751 21.4999999,33.3320312 21.4999999,33.3320312" id="Path-5-Copy"></path>
            </g>
            <g id="decir" transform="translate(700.000000, 124.000000)" stroke="#0000FF" stroke-width="3">
                <path d="M8.04199219,15.5 L28.0419922,15.5" id="Path-6"></path>
            </g>
            <g id="decir" transform="translate(300.000000, 124.000000)" stroke="#0000FF" stroke-width="3">
                <path d="M8.04199219,15.5 L28.0419922,15.5" id="Path-6"></path>
            </g>
            <g id="decir" transform="translate(100.000000, 121.000000)" stroke="#0000FF" stroke-width="3">
                <path d="M8.04199219,15.5 L28.0419922,15.5" id="Path-6"></path>
            </g>
            <g id="decir" transform="translate(516.000000, 124.000000)" stroke="#0000FF" stroke-width="3">
                <path d="M8.04199219,15.5 L28.0419922,15.5" id="Path-6"></path>
            </g>
            <g id="hacer" transform="translate(653.000000, 110.000000)" stroke="#0000FF" stroke-width="3">
                <path d="M8.5,3.95849609 C8.5,3.95849609 14.1528323,14.2358398 8.49999994,14.2358398 C2.84716759,14.2358398 8.5,3.95849609 8.5,3.95849609 Z" id="Path-31"></path>
            </g>
            <g id="hacer" transform="translate(825.000000, 100.000000)" stroke="#0000FF" stroke-width="3">
                <path d="M8.5,3.95849609 C8.5,3.95849609 14.1528323,14.2358398 8.49999994,14.2358398 C2.84716759,14.2358398 8.5,3.95849609 8.5,3.95849609 Z" id="Path-31"></path>
            </g>
            <g id="pensar" transform="translate(500.000000, 23.000000)" stroke="#0000FF" stroke-width="3">
                <path d="M2.72606456,6.5 C4.89951949,11.405702 13.3265449,14.094298 15.4999999,19 C17.5845234,23.7049751 15.4999999,35.3320312 15.4999999,35.3320312" id="Path-5"></path>
                <path d="M8.72606456,4.5 C10.8995195,9.40570203 19.3265449,12.094298 21.4999999,17 C23.5845234,21.7049751 21.4999999,33.3320312 21.4999999,33.3320312" id="Path-5-Copy"></path>
            </g>
            <g id="hacer" transform="translate(447.000000, 100.000000)" stroke="#0000FF" stroke-width="3">
                <path d="M8.5,3.95849609 C8.5,3.95849609 14.1528323,14.2358398 8.49999994,14.2358398 C2.84716759,14.2358398 8.5,3.95849609 8.5,3.95849609 Z" id="Path-31"></path>
            </g>
            <g id="pensar" transform="translate(285.000000, 23.000000)" stroke="#0000FF" stroke-width="3">
                <path d="M2.72606456,6.5 C4.89951949,11.405702 13.3265449,14.094298 15.4999999,19 C17.5845234,23.7049751 15.4999999,35.3320312 15.4999999,35.3320312" id="Path-5"></path>
                <path d="M8.72606456,4.5 C10.8995195,9.40570203 19.3265449,12.094298 21.4999999,17 C23.5845234,21.7049751 21.4999999,33.3320312 21.4999999,33.3320312" id="Path-5-Copy"></path>
            </g>
            <g id="pensar" transform="translate(85.000000, 27.000000)" stroke="#0000FF" stroke-width="3">
                <path d="M2.72606456,6.5 C4.89951949,11.405702 13.3265449,14.094298 15.4999999,19 C17.5845234,23.7049751 15.4999999,35.3320312 15.4999999,35.3320312" id="Path-5"></path>
                <path d="M8.72606456,4.5 C10.8995195,9.40570203 19.3265449,12.094298 21.4999999,17 C23.5845234,21.7049751 21.4999999,33.3320312 21.4999999,33.3320312" id="Path-5-Copy"></path>
            </g>
            <g id="hacer" transform="translate(237.000000, 100.000000)" stroke="#0000FF" stroke-width="3">
                <path d="M8.5,3.95849609 C8.5,3.95849609 14.1528323,14.2358398 8.49999994,14.2358398 C2.84716759,14.2358398 8.5,3.95849609 8.5,3.95849609 Z" id="Path-31"></path>
            </g>
            <g id="sentir" transform="translate(653.000000, 61.000000)" stroke="#0000FF" stroke-width="3">
                <path d="M13.4533064,5.28341488 C13.4533064,5.28341488 10.5661477,26.4752194 20.7830736,39.3490838" id="Path-1"></path>
                <path d="M-1.02154481,31.5779955 C-1.02154481,31.5779955 20.215248,27.5533397 25.6076243,15.3858297" id="Path-2"></path>
            </g>
            <g id="sentir" transform="translate(853.000000, 61.000000)" stroke="#0000FF" stroke-width="3">
                <path d="M13.4533064,5.28341488 C13.4533064,5.28341488 10.5661477,26.4752194 20.7830736,39.3490838" id="Path-1"></path>
                <path d="M-1.02154481,31.5779955 C-1.02154481,31.5779955 20.215248,27.5533397 25.6076243,15.3858297" id="Path-2"></path>
            </g>
            <g id="sentir" transform="translate(1100.000000, 68.000000)" stroke="#0000FF" stroke-width="3">
                <path d="M13.4533064,5.28341488 C13.4533064,5.28341488 10.5661477,26.4752194 20.7830736,39.3490838" id="Path-1"></path>
                <path d="M-1.02154481,31.5779955 C-1.02154481,31.5779955 20.215248,27.5533397 25.6076243,15.3858297" id="Path-2"></path>
            </g>
            <g id="decir" transform="translate(900.000000, 121.000000)" stroke="#0000FF" stroke-width="3">
                <path d="M8.04199219,15.5 L28.0419922,15.5" id="Path-6"></path>
            </g>
            <g id="sentir" transform="translate(454.000000, 61.000000)" stroke="#0000FF" stroke-width="3">
                <path d="M13.4533064,5.28341488 C13.4533064,5.28341488 10.5661477,26.4752194 20.7830736,39.3490838" id="Path-1"></path>
                <path d="M-1.02154481,31.5779955 C-1.02154481,31.5779955 20.215248,27.5533397 25.6076243,15.3858297" id="Path-2"></path>
            </g>
            <g id="pensar" transform="translate(1077.000000, 119.000000)" stroke="#0000FF" stroke-width="3">
                <path d="M2.72606456,6.5 C4.89951949,11.405702 13.3265449,14.094298 15.4999999,19 C17.5845234,23.7049751 15.4999999,35.3320312 15.4999999,35.3320312" id="Path-5"></path>
                <path d="M8.72606456,4.5 C10.8995195,9.40570203 19.3265449,12.094298 21.4999999,17 C23.5845234,21.7049751 21.4999999,33.3320312 21.4999999,33.3320312" id="Path-5-Copy"></path>
            </g>
            <g id="pensar" transform="translate(885.000000, 27.000000)" stroke="#0000FF" stroke-width="3">
                <path d="M2.72606456,6.5 C4.89951949,11.405702 13.3265449,14.094298 15.4999999,19 C17.5845234,23.7049751 15.4999999,35.3320312 15.4999999,35.3320312" id="Path-5"></path>
                <path d="M8.72606456,4.5 C10.8995195,9.40570203 19.3265449,12.094298 21.4999999,17 C23.5845234,21.7049751 21.4999999,33.3320312 21.4999999,33.3320312" id="Path-5-Copy"></path>
            </g>
            <g id="hacer" transform="translate(1024.000000, 100.000000)" stroke="#0000FF" stroke-width="3">
                <path d="M8.5,3.95849609 C8.5,3.95849609 14.1528323,14.2358398 8.49999994,14.2358398 C2.84716759,14.2358398 8.5,3.95849609 8.5,3.95849609 Z" id="Path-31"></path>
            </g>
            <g id="decir" transform="translate(1100.768927, 107.861284) rotate(31.000000) translate(-1100.768927, -107.861284) translate(1079.268927, 92.361284)" stroke="#0000FF" stroke-width="3">
                <path d="M8.04199219,15.5 L28.0419922,15.5" id="Path-6"></path>
            </g>
            <path d="M169.652548,71.5883876 C180.424548,95.6823876 167.152548,130.335388 140.739548,147.273388 C114.326548,164.210388 79.5115477,165.414388 56.2675477,157.477388 C33.0225477,149.540388 22.5345477,125.813388 28.7705477,102.102388 C35.0075477,78.3913876 37.5585477,62.8003876 58.8185477,49.1943879 C58.8185477,49.1943879 71.2905477,40.9733879 94.8185477,42.1073879 C118.345548,43.2413879 158.881548,47.4933879 169.652548,71.5883876 Z" id="icono_t0t-2-path" stroke="#0000FF" stroke-width="3" stroke-linecap="square" stroke-linejoin="round"></path>
            <path d="M369.652548,71.5883876 C380.424548,95.6823876 367.152548,130.335388 340.739548,147.273388 C314.326548,164.210388 279.511548,165.414388 256.267548,157.477388 C233.022548,149.540388 222.534548,125.813388 228.770548,102.102388 C235.007548,78.3913876 237.558548,62.8003876 258.818548,49.1943879 C258.818548,49.1943879 271.290548,40.9733879 294.818548,42.1073879 C318.345548,43.2413879 358.881548,47.4933879 369.652548,71.5883876 Z" id="icono_t0t-2-path" stroke="#0000FF" stroke-width="3" stroke-linecap="square" stroke-linejoin="round"></path>
            <path d="M569.652548,71.5883876 C580.424548,95.6823876 567.152548,130.335388 540.739548,147.273388 C514.326548,164.210388 479.511548,165.414388 456.267548,157.477388 C433.022548,149.540388 422.534548,125.813388 428.770548,102.102388 C435.007548,78.3913876 437.558548,62.8003876 458.818548,49.1943879 C458.818548,49.1943879 471.290548,40.9733879 494.818548,42.1073879 C518.345548,43.2413879 558.881548,47.4933879 569.652548,71.5883876 Z" id="icono_t0t-2-path-copy" stroke="#0000FF" stroke-width="3" stroke-linecap="square" stroke-linejoin="round"></path>
            <path d="M769.652548,71.5883876 C780.424548,95.6823876 767.152548,130.335388 740.739548,147.273388 C714.326548,164.210388 679.511548,165.414388 656.267548,157.477388 C633.022548,149.540388 622.534548,125.813388 628.770548,102.102388 C635.007548,78.3913876 637.558548,62.8003876 658.818548,49.1943879 C658.818548,49.1943879 671.290548,40.9733879 694.818548,42.1073879 C718.345548,43.2413879 758.881548,47.4933879 769.652548,71.5883876 Z" id="icono_t0t-2-path-copy-2" stroke="#0000FF" stroke-width="3" stroke-linecap="square" stroke-linejoin="round"></path>
            <path d="M969.652548,71.5883876 C980.424548,95.6823876 967.152548,130.335388 940.739548,147.273388 C914.326548,164.210388 879.511548,165.414388 856.267548,157.477388 C833.022548,149.540388 822.534548,125.813388 828.770548,102.102388 C835.007548,78.3913876 837.558548,62.8003876 858.818548,49.1943879 C858.818548,49.1943879 871.290548,40.9733879 894.818548,42.1073879 C918.345548,43.2413879 958.881548,47.4933879 969.652548,71.5883876 Z" id="icono_t0t-2-path-copy-3" stroke="#0000FF" stroke-width="3" stroke-linecap="square" stroke-linejoin="round"></path>
            <path d="M1169.65255,71.5883876 C1180.42455,95.6823876 1167.15255,130.335388 1140.73955,147.273388 C1114.32655,164.210388 1079.51155,165.414388 1056.26755,157.477388 C1033.02255,149.540388 1022.53455,125.813388 1028.77055,102.102388 C1035.00755,78.3913876 1037.55855,62.8003876 1058.81855,49.1943879 C1058.81855,49.1943879 1071.29055,40.9733879 1094.81855,42.1073879 C1118.34555,43.2413879 1158.88155,47.4933879 1169.65255,71.5883876 Z" id="icono_t0t-2-path-copy-4" stroke="#0000FF" stroke-width="3" stroke-linecap="square" stroke-linejoin="round"></path>
            <g id="sentir" transform="translate(54.000000, 61.000000)" stroke="#0000FF" stroke-width="3">
                <path d="M13.4533064,5.28341488 C13.4533064,5.28341488 10.5661477,26.4752194 20.7830736,39.3490838" id="Path-1"></path>
                <path d="M-1.02154481,31.5779955 C-1.02154481,31.5779955 20.215248,27.5533397 25.6076243,15.3858297" id="Path-2"></path>
            </g>
            <g id="hacer" transform="translate(46.000000, 110.000000)" stroke="#0000FF" stroke-width="3">
                <path d="M8.5,3.95849609 C8.5,3.95849609 14.1528323,14.2358398 8.49999994,14.2358398 C2.84716759,14.2358398 8.5,3.95849609 8.5,3.95849609 Z" id="Path-31"></path>
            </g>
            <path d="M1200,199.5 L0,199.5" id="Line" stroke="#FFFFFF"></path>
        </g>
    </g>
</svg>