<?xml version="1.0" encoding="UTF-8" standalone="no"?>
<svg width="1200px" height="200px" viewBox="0 0 1200 200" version="1.1" xmlns="http://www.w3.org/2000/svg" xmlns:xlink="http://www.w3.org/1999/xlink">
    <!-- Generator: Sketch 3.8.3 (29802) - http://www.bohemiancoding.com/sketch -->
    <title>anim_sentir</title>
    <desc>Created with Sketch.</desc>
    <defs></defs>
    <g id="Page-1" stroke="none" stroke-width="1" fill="none" fill-rule="evenodd">
        <g id="anim_sentir">
            <rect id="Rectangle-1" fill="#FFFFFF" x="0" y="0" width="1200" height="200"></rect>
            <g id="sentir" transform="translate(273.000000, 96.000000)" stroke="#0000FF" stroke-width="3">
                <path d="M8.4533064,5.28341488 C8.4533064,5.28341488 5.56614768,26.4752194 15.7830736,39.3490838" id="Path-1"></path>
                <path d="M-6.02154481,31.5779955 C-6.02154481,31.5779955 15.215248,27.5533397 20.6076243,15.3858297" id="Path-2"></path>
            </g>
            <g id="pensar" transform="translate(685.000000, 102.000000)" stroke="#0000FF" stroke-width="3">
                <path d="M13.5,28.2677008 L13.5,2.8629578" id="Path-6-Copy"></path>
                <path d="M3.5,28.2677008 L3.5,2.8629578" id="Path-6-Copy-2"></path>
                <path d="M2.72606456,16.5 L23.2533877,16.5" id="Path-5-Copy"></path>
                <path d="M2.72606456,6.5 L23.2533877,6.5" id="Path-5"></path>
                <path d="M23.5,28.2677008 L23.5,2.8629578" id="Path-6"></path>
                <path d="M2.72606456,26.5 L23.2533877,26.5" id="Path-5-Copy-2"></path>
            </g>
            <g id="hacer" transform="translate(655.000000, 76.000000)" stroke-width="3" stroke="#0000FF">
                <polygon id="Path-31" points="0.502093363 16.6165367 0.502093363 0.368792005 16.5807703 0.368792005 16.5807703 16.7326423"></polygon>
            </g>
            <g id="pensar" transform="translate(495.000000, 112.000000)" stroke="#0000FF" stroke-width="3">
                <path d="M13.5,28.2677008 L13.5,2.8629578" id="Path-6-Copy"></path>
                <path d="M3.5,28.2677008 L3.5,2.8629578" id="Path-6-Copy-2"></path>
                <path d="M2.72606456,16.5 L23.2533877,16.5" id="Path-5-Copy"></path>
                <path d="M2.72606456,6.5 L23.2533877,6.5" id="Path-5"></path>
                <path d="M23.5,28.2677008 L23.5,2.8629578" id="Path-6"></path>
                <path d="M2.72606456,26.5 L23.2533877,26.5" id="Path-5-Copy-2"></path>
            </g>
            <g id="hacer" transform="translate(464.000000, 61.000000)" stroke-width="3" stroke="#0000FF">
                <polygon id="Path-31" points="0.502093363 16.6165367 0.502093363 0.368792005 16.5807703 0.368792005 16.5807703 16.7326423"></polygon>
            </g>
            <g id="pensar" transform="translate(305.000000, 112.000000)" stroke="#0000FF" stroke-width="3">
                <path d="M13.5,28.2677008 L13.5,2.8629578" id="Path-6-Copy"></path>
                <path d="M3.5,28.2677008 L3.5,2.8629578" id="Path-6-Copy-2"></path>
                <path d="M2.72606456,16.5 L23.2533877,16.5" id="Path-5-Copy"></path>
                <path d="M2.72606456,6.5 L23.2533877,6.5" id="Path-5"></path>
                <path d="M23.5,28.2677008 L23.5,2.8629578" id="Path-6"></path>
                <path d="M2.72606456,26.5 L23.2533877,26.5" id="Path-5-Copy-2"></path>
            </g>
            <g id="pensar" transform="translate(98.000000, 62.000000)" stroke="#0000FF" stroke-width="3">
                <path d="M13.5,28.2677008 L13.5,2.8629578" id="Path-6-Copy"></path>
                <path d="M3.5,28.2677008 L3.5,2.8629578" id="Path-6-Copy-2"></path>
                <path d="M2.72606456,16.5 L23.2533877,16.5" id="Path-5-Copy"></path>
                <path d="M2.72606456,6.5 L23.2533877,6.5" id="Path-5"></path>
                <path d="M23.5,28.2677008 L23.5,2.8629578" id="Path-6"></path>
                <path d="M2.72606456,26.5 L23.2533877,26.5" id="Path-5-Copy-2"></path>
            </g>
            <g id="hacer" transform="translate(275.000000, 145.000000)" stroke-width="3" stroke="#0000FF">
                <polygon id="Path-31" points="0.502093363 16.6165367 0.502093363 0.368792005 16.5807703 0.368792005 16.5807703 16.7326423"></polygon>
            </g>
            <g id="sentir" transform="translate(719.000000, 69.000000)" stroke="#0000FF" stroke-width="3">
                <path d="M8.4533064,5.28341488 C8.4533064,5.28341488 5.56614768,26.4752194 15.7830736,39.3490838" id="Path-1"></path>
                <path d="M-6.02154481,31.5779955 C-6.02154481,31.5779955 15.215248,27.5533397 20.6076243,15.3858297" id="Path-2"></path>
            </g>
            <g id="sentir" transform="translate(900.000000, 61.000000)" stroke="#0000FF" stroke-width="3">
                <path d="M8.4533064,5.28341488 C8.4533064,5.28341488 5.56614768,26.4752194 15.7830736,39.3490838" id="Path-1"></path>
                <path d="M-6.02154481,31.5779955 C-6.02154481,31.5779955 15.215248,27.5533397 20.6076243,15.3858297" id="Path-2"></path>
            </g>
            <g id="sentir" transform="translate(1129.000000, 79.000000)" stroke="#0000FF" stroke-width="3">
                <path d="M8.4533064,5.28341488 C8.4533064,5.28341488 5.56614768,26.4752194 15.7830736,39.3490838" id="Path-1"></path>
                <path d="M-6.02154481,31.5779955 C-6.02154481,31.5779955 15.215248,27.5533397 20.6076243,15.3858297" id="Path-2"></path>
            </g>
            <g id="decir" transform="translate(900.000000, 90.000000)" stroke="#0000FF" stroke-width="3">
                <path d="M5.03604287,30.1375143 C-1.91236523,30.137514 -1.03691847,21.4801845 5.036043,15.0870265 C11.1090045,8.69386856 11.5443296,0.0293434246 5.03604314,0.0293434236 C-1.47224334,0.0293434227 0.147932525,7.61688904 5.03604292,15.0870268 C9.92415331,22.5571645 11.984451,30.1375145 5.03604287,30.1375143 Z" id="Path-31" transform="translate(4.951473, 15.083429) rotate(-270.000000) translate(-4.951473, -15.083429) "></path>
            </g>
            <g id="Group" transform="translate(469.000000, 89.000000)" stroke-width="3" stroke="#0000FF">
                <g id="sentir">
                    <path d="M8.4533064,5.28341488 C8.4533064,5.28341488 5.56614768,26.4752194 15.7830736,39.3490838" id="Path-1"></path>
                    <path d="M-6.02154481,31.5779955 C-6.02154481,31.5779955 15.215248,27.5533397 20.6076243,15.3858297" id="Path-2"></path>
                </g>
                <g id="pensar" transform="translate(585.000000, 10.000000)">
                    <path d="M13.5,28.2677008 L13.5,2.8629578" id="Path-6-Copy"></path>
                    <path d="M3.5,28.2677008 L3.5,2.8629578" id="Path-6-Copy-2"></path>
                    <path d="M2.72606456,16.5 L23.2533877,16.5" id="Path-5-Copy"></path>
                    <path d="M2.72606456,6.5 L23.2533877,6.5" id="Path-5"></path>
                    <path d="M23.5,28.2677008 L23.5,2.8629578" id="Path-6"></path>
                    <path d="M2.72606456,26.5 L23.2533877,26.5" id="Path-5-Copy-2"></path>
                </g>
                <g id="pensar" transform="translate(415.000000, 30.000000)">
                    <path d="M13.5,28.2677008 L13.5,2.8629578" id="Path-6-Copy"></path>
                    <path d="M3.5,28.2677008 L3.5,2.8629578" id="Path-6-Copy-2"></path>
                    <path d="M2.72606456,16.5 L23.2533877,16.5" id="Path-5-Copy"></path>
                    <path d="M2.72606456,6.5 L23.2533877,6.5" id="Path-5"></path>
                    <path d="M23.5,28.2677008 L23.5,2.8629578" id="Path-6"></path>
                    <path d="M2.72606456,26.5 L23.2533877,26.5" id="Path-5-Copy-2"></path>
                </g>
                <g id="hacer" transform="translate(611.000000, 53.095238)">
                    <polygon id="Path-31" points="0.502093363 16.6165367 0.502093363 0.368792005 16.5807703 0.368792005 16.5807703 16.7326423"></polygon>
                </g>
            </g>
            <g id="decir" transform="translate(1100.268927, 97.861284) rotate(31.000000) translate(-1100.268927, -97.861284) translate(1095.268927, 82.361284)" stroke="#0000FF" stroke-width="3">
                <path d="M5.03604287,30.1375143 C-1.91236523,30.137514 -1.03691847,21.4801845 5.036043,15.0870265 C11.1090045,8.69386856 11.5443296,0.0293434246 5.03604314,0.0293434236 C-1.47224334,0.0293434227 0.147932525,7.61688904 5.03604292,15.0870268 C9.92415331,22.5571645 11.984451,30.1375145 5.03604287,30.1375143 Z" id="Path-31" transform="translate(4.951473, 15.083429) rotate(-270.000000) translate(-4.951473, -15.083429) "></path>
            </g>
            <path d="M169.652548,71.5883876 C180.424548,95.6823876 167.152548,130.335388 140.739548,147.273388 C114.326548,164.210388 79.5115477,165.414388 56.2675477,157.477388 C33.0225477,149.540388 22.5345477,125.813388 28.7705477,102.102388 C35.0075477,78.3913876 37.5585477,62.8003876 58.8185477,49.1943879 C58.8185477,49.1943879 71.2905477,40.9733879 94.8185477,42.1073879 C118.345548,43.2413879 158.881548,47.4933879 169.652548,71.5883876 Z" id="icono_t0t-2-path" stroke="#0000FF" stroke-width="3" stroke-linecap="square" stroke-linejoin="round"></path>
            <path d="M369.652548,71.5883876 C380.424548,95.6823876 367.152548,130.335388 340.739548,147.273388 C314.326548,164.210388 279.511548,165.414388 256.267548,157.477388 C233.022548,149.540388 222.534548,125.813388 228.770548,102.102388 C235.007548,78.3913876 237.558548,62.8003876 258.818548,49.1943879 C258.818548,49.1943879 271.290548,40.9733879 294.818548,42.1073879 C318.345548,43.2413879 358.881548,47.4933879 369.652548,71.5883876 Z" id="icono_t0t-2-path" stroke="#0000FF" stroke-width="3" stroke-linecap="square" stroke-linejoin="round"></path>
            <path d="M569.652548,71.5883876 C580.424548,95.6823876 567.152548,130.335388 540.739548,147.273388 C514.326548,164.210388 479.511548,165.414388 456.267548,157.477388 C433.022548,149.540388 422.534548,125.813388 428.770548,102.102388 C435.007548,78.3913876 437.558548,62.8003876 458.818548,49.1943879 C458.818548,49.1943879 471.290548,40.9733879 494.818548,42.1073879 C518.345548,43.2413879 558.881548,47.4933879 569.652548,71.5883876 Z" id="icono_t0t-2-path-copy" stroke="#0000FF" stroke-width="3" stroke-linecap="square" stroke-linejoin="round"></path>
            <path d="M769.652548,71.5883876 C780.424548,95.6823876 767.152548,130.335388 740.739548,147.273388 C714.326548,164.210388 679.511548,165.414388 656.267548,157.477388 C633.022548,149.540388 622.534548,125.813388 628.770548,102.102388 C635.007548,78.3913876 637.558548,62.8003876 658.818548,49.1943879 C658.818548,49.1943879 671.290548,40.9733879 694.818548,42.1073879 C718.345548,43.2413879 758.881548,47.4933879 769.652548,71.5883876 Z" id="icono_t0t-2-path-copy-2" stroke="#0000FF" stroke-width="3" stroke-linecap="square" stroke-linejoin="round"></path>
            <path d="M969.652548,71.5883876 C980.424548,95.6823876 967.152548,130.335388 940.739548,147.273388 C914.326548,164.210388 879.511548,165.414388 856.267548,157.477388 C833.022548,149.540388 822.534548,125.813388 828.770548,102.102388 C835.007548,78.3913876 837.558548,62.8003876 858.818548,49.1943879 C858.818548,49.1943879 871.290548,40.9733879 894.818548,42.1073879 C918.345548,43.2413879 958.881548,47.4933879 969.652548,71.5883876 Z" id="icono_t0t-2-path-copy-3" stroke="#0000FF" stroke-width="3" stroke-linecap="square" stroke-linejoin="round"></path>
            <path d="M1169.65255,71.5883876 C1180.42455,95.6823876 1167.15255,130.335388 1140.73955,147.273388 C1114.32655,164.210388 1079.51155,165.414388 1056.26755,157.477388 C1033.02255,149.540388 1022.53455,125.813388 1028.77055,102.102388 C1035.00755,78.3913876 1037.55855,62.8003876 1058.81855,49.1943879 C1058.81855,49.1943879 1071.29055,40.9733879 1094.81855,42.1073879 C1118.34555,43.2413879 1158.88155,47.4933879 1169.65255,71.5883876 Z" id="icono_t0t-2-path-copy-4" stroke="#0000FF" stroke-width="3" stroke-linecap="square" stroke-linejoin="round"></path>
            <g id="sentir" transform="translate(62.000000, 97.000000)" stroke="#0000FF" stroke-width="3">
                <path d="M8.4533064,5.28341488 C8.4533064,5.28341488 5.56614768,26.4752194 15.7830736,39.3490838" id="Path-1"></path>
                <path d="M-6.02154481,31.5779955 C-6.02154481,31.5779955 15.215248,27.5533397 20.6076243,15.3858297" id="Path-2"></path>
            </g>
            <g id="hacer" transform="translate(122.000000, 117.000000)" stroke-width="3" stroke="#0000FF">
                <polygon id="Path-31" points="0.502093363 16.6165367 0.502093363 0.368792005 16.5807703 0.368792005 16.5807703 16.7326423"></polygon>
            </g>
            <path d="M1200,199.5 L0,199.5" id="Line" stroke="#FFFFFF"></path>
        </g>
    </g>
</svg>