<?xml version="1.0" encoding="UTF-8" standalone="no"?>
<svg width="1200px" height="300px" viewBox="0 0 1200 300" version="1.1" xmlns="http://www.w3.org/2000/svg" xmlns:xlink="http://www.w3.org/1999/xlink">
    <!-- Generator: Sketch 3.8.3 (29802) - http://www.bohemiancoding.com/sketch -->
    <title>anim_decir</title>
    <desc>Created with Sketch.</desc>
    <defs></defs>
    <g id="Page-1" stroke="none" stroke-width="1" fill="none" fill-rule="evenodd">
        <g id="anim_decir">
            <rect id="Rectangle-2" fill="#D8D8D8" x="0" y="296" width="4" height="4"></rect>
            <rect id="Rectangle-2-Copy" fill="#D8D8D8" x="0" y="0" width="4" height="4"></rect>
            <rect id="Rectangle-2" fill="#D8D8D8" x="1196" y="296" width="4" height="4"></rect>
            <rect id="Rectangle-2-Copy" fill="#D8D8D8" x="1196" y="0" width="4" height="4"></rect>
            <g id="anim_t0t_bg" transform="translate(23.000000, 61.000000)" stroke="#0000FA" stroke-width="4">
                <path d="M73.8185477,29.0053563 C97.345548,30.1393563 137.881548,34.3913563 148.652548,58.486356 C159.424548,82.580356 146.152548,117.233356 119.739548,134.171356 C93.326548,151.108356 58.5115477,152.312356 35.2675477,144.375356 C12.0225477,136.438356 1.5345477,112.711356 7.7705477,89.000356 C14.0075477,65.289356 16.5585477,49.698356 37.8185477,36.0923563 C37.8185477,36.0923563 50.2905477,27.8713563 73.8185477,29.0053563 L73.8185477,29.0053563 Z M36.431522,91.648477 C36.761301,112.270715 29.9059742,110.47936 23.3072803,112.104692 C16.4924753,103.295084 4.33512,103.295084 4.33512,103.295084 L36.431522,91.648477 Z M115.011548,133.364356 L128.751548,133.364356 L128.751548,117.072356 L115.011548,117.072356 L115.011548,133.364356 L115.011548,133.364356 Z M116.967548,62.478356 C116.967548,62.478356 113.282548,48.305356 121.786548,41.785356 C130.290548,35.265356 139.361548,36.116356 144.747548,30.163356 C150.133548,24.210356 152.684548,15.423356 152.684548,15.423356 L116.967548,62.478356 Z M1.5155477,100.026356 C1.5155477,100.026356 -2.1694523,85.853356 6.3345477,79.333356 C14.8385477,72.813356 23.9095477,73.664356 29.2955477,67.711356 C34.6815477,61.758356 37.2325477,52.971356 37.2325477,52.971356 L1.5155477,100.026356 Z" id="icono_t0t"></path>
                <path d="M273.818548,29.0053563 C297.345548,30.1393563 337.881548,34.3913563 348.652548,58.486356 C359.424548,82.580356 346.152548,117.233356 319.739548,134.171356 C293.326548,151.108356 258.511548,152.312356 235.267548,144.375356 C212.022548,136.438356 201.534548,112.711356 207.770548,89.000356 C214.007548,65.289356 216.558548,49.698356 237.818548,36.0923563 C237.818548,36.0923563 250.290548,27.8713563 273.818548,29.0053563 L273.818548,29.0053563 Z M222.431522,100.648477 C222.761301,121.270715 215.905974,119.47936 209.30728,121.104692 C202.492475,112.295084 190.33512,112.295084 190.33512,112.295084 L222.431522,100.648477 Z M322.011548,133.364356 L335.751548,133.364356 L335.751548,117.072356 L322.011548,117.072356 L322.011548,133.364356 L322.011548,133.364356 Z M306.967548,63.478356 C306.967548,63.478356 303.282548,49.305356 311.786548,42.785356 C320.290548,36.265356 329.361548,46.116356 334.747548,40.163356 C340.133548,34.210356 349.684548,30.423356 349.684548,30.423356 L306.967548,63.478356 Z M200.515548,78.026356 C200.515548,78.026356 196.830548,63.853356 205.334548,57.333356 C213.838548,50.813356 220.275474,49.525917 225.661474,43.572917 C231.047474,37.619917 236.232548,30.971356 236.232548,30.971356 L200.515548,78.026356 Z" id="icono_t0t-2"></path>
                <path d="M548.652548,58.486356 C559.424548,82.580356 546.152548,117.233356 519.739548,134.171356 C493.326548,151.108356 458.511548,152.312356 435.267548,144.375356 C412.022548,136.438356 401.534548,112.711356 407.770548,89.000356 C414.007548,65.289356 416.558548,49.698356 437.818548,36.0923563 C437.818548,36.0923563 450.290548,27.8713563 473.818548,29.0053563 C497.345548,30.1393563 537.881548,34.3913563 548.652548,58.486356 Z M505.011548,132.364356 L518.751548,132.364356 L518.751548,119.897968 L505.011548,119.897968 L505.011548,132.364356 L505.011548,132.364356 Z M426.162532,116.356495 C427.821881,117.794571 426.760397,120.228179 425.189245,119.896465 C423.618484,119.564361 422.954666,118.330777 423.28638,116.513766 C423.618484,114.697146 424.281911,112.927356 424.281911,112.927356 C424.281911,112.927356 424.503183,114.918419 426.162532,116.356495 L426.162532,116.356495 Z M516.967548,73.478356 C516.967548,73.478356 507.282548,52.305356 515.786548,45.785356 C524.290548,39.265356 535.018443,46.218008 540.404443,40.265008 C545.790443,34.312008 552.181688,34.316575 552.181688,34.316575 L516.967548,73.478356 Z M451.515548,68.026356 C451.515548,68.026356 438.830548,49.853356 447.334548,43.333356 C455.838548,36.813356 462.692448,36.592271 468.078448,30.639271 C473.464448,24.686271 462.380131,20.407063 462.380131,20.407063 L451.515548,68.026356 Z" id="icono_t0t-3"></path>
                <path d="M673.818548,29.0053563 C697.345548,30.1393563 737.881548,34.3913563 748.652548,58.486356 C759.424548,82.580356 746.152548,117.233356 719.739548,134.171356 C693.326548,151.108356 658.511548,152.312356 635.267548,144.375356 C612.022548,136.438356 601.534548,112.711356 607.770548,89.000356 C614.007548,65.289356 616.558548,49.698356 637.818548,36.0923563 C637.818548,36.0923563 650.290548,27.8713563 673.818548,29.0053563 L673.818548,29.0053563 Z M632.475989,112.927356 C632.475989,112.927356 632.94217,117.122158 636.438112,120.15192 C639.934054,123.181681 637.697703,128.308844 634.387576,127.609984 C631.07827,126.910302 629.679729,124.311367 630.378589,120.483261 C631.07827,116.655977 632.475989,112.927356 632.475989,112.927356 L632.475989,112.927356 L632.475989,112.927356 Z M695.011548,122.364356 L708.751548,122.364356 L708.751548,121.897968 L695.011548,121.897968 L695.011548,122.364356 L695.011548,122.364356 Z M687.967548,53.478356 C687.967548,53.478356 684.282548,39.305356 692.786548,32.785356 C701.290548,26.265356 697.616643,49.595995 703.002643,43.642995 C708.388643,37.689995 716.054914,34.170404 716.054914,34.170404 L687.967548,53.478356 Z M671.515548,58.026356 C671.515548,58.026356 667.830548,43.853356 676.334548,37.333356 C684.838548,30.813356 696.102684,27.596922 701.488684,21.643922 C706.874684,15.690922 707.232548,0.971356 707.232548,0.971356 L671.515548,58.026356 Z" id="icono_t0t-4"></path>
                <path d="M873.818548,29.0053563 C897.345548,30.1393563 937.881548,34.3913563 948.652548,58.486356 C959.424548,82.580356 946.152548,117.233356 919.739548,134.171356 C893.326548,151.108356 858.511548,152.312356 835.267548,144.375356 C812.022548,136.438356 801.534548,112.711356 807.770548,89.000356 C814.007548,65.289356 816.558548,49.698356 837.818548,36.0923563 C837.818548,36.0923563 850.290548,27.8713563 873.818548,29.0053563 L873.818548,29.0053563 Z M895.011548,142.364356 L908.751548,142.364356 L908.751548,116.897968 L895.011548,116.897968 L895.011548,142.364356 L895.011548,142.364356 Z M834.425173,112.300378 C839.908786,112.631773 841.72839,122.981783 834.147907,123.808449 C826.567424,124.635115 827.148407,119.772727 827.87396,115.798404 C828.600367,111.824934 834.425173,112.300378 834.425173,112.300378 L834.425173,112.300378 Z M896.967548,63.478356 C896.967548,63.478356 893.282548,59.305356 901.786548,52.785356 C910.290548,46.265356 919.361548,47.116356 924.747548,41.163356 C930.133548,35.210356 932.684548,26.423356 932.684548,26.423356 L896.967548,63.478356 Z M831.515548,62.026356 C831.515548,62.026356 831.887099,55.570347 840.391099,49.050347 C848.895099,42.530347 843.909548,25.664356 849.295548,19.711356 C854.681548,13.758356 861.082456,17.210213 857.232548,4.971356 L831.515548,62.026356 Z" id="icono_t0t-6"></path>
                <path d="M1073.81855,29.0053563 C1097.34555,30.1393563 1137.88155,34.3913563 1148.65255,58.486356 C1159.42455,82.580356 1146.15255,117.233356 1119.73955,134.171356 C1093.32655,151.108356 1058.51155,152.312356 1035.26755,144.375356 C1012.02255,136.438356 1001.53455,112.711356 1007.77055,89.000356 C1014.00755,65.289356 1016.55855,49.698356 1037.81855,36.0923563 C1037.81855,36.0923563 1050.29055,27.8713563 1073.81855,29.0053563 L1073.81855,29.0053563 Z M1101.01155,127.364356 L1114.75155,127.364356 L1114.75155,111.072356 L1101.01155,111.072356 L1101.01155,127.364356 L1101.01155,127.364356 Z M1037.78655,116.714356 C1042.03855,120.399356 1039.31855,126.635356 1035.29255,125.785356 C1031.26755,124.934356 1029.56655,121.773356 1030.41655,117.117356 C1031.26755,112.462356 1032.96755,107.927356 1032.96755,107.927356 C1032.96755,107.927356 1033.53455,113.029356 1037.78655,116.714356 L1037.78655,116.714356 Z M1106.96755,73.478356 C1106.96755,73.478356 1103.35805,64.519999 1111.86205,57.999999 C1120.36605,51.479999 1129.43705,52.330999 1134.82305,46.377999 C1140.20905,40.424999 1142.68455,26.423356 1142.68455,26.423356 L1106.96755,73.478356 Z M1011.51555,68.026356 C1011.51555,68.026356 1003.01155,54.922593 1011.51555,48.402593 C1020.01955,41.882593 1029.09055,42.733593 1034.47655,36.780593 C1039.86255,30.827593 1047.23255,20.971356 1047.23255,20.971356 L1011.51555,68.026356 Z" id="icono_t0t-5"></path>
            </g>
        </g>
    </g>
</svg>