<?xml version="1.0" encoding="UTF-8" standalone="no"?>
<svg width="1200px" height="300px" viewBox="0 0 1200 300" version="1.1" xmlns="http://www.w3.org/2000/svg" xmlns:xlink="http://www.w3.org/1999/xlink">
    <!-- Generator: Sketch 3.8.3 (29802) - http://www.bohemiancoding.com/sketch -->
    <title>anim_decir</title>
    <desc>Created with Sketch.</desc>
    <defs></defs>
    <g id="Page-1" stroke="none" stroke-width="1" fill="none" fill-rule="evenodd">
        <g id="anim_decir">
            <rect id="bg" fill="#D8D8D8" x="0" y="0" width="1200" height="300"></rect>
            <g id="anim_t0t_bg" transform="translate(23.000000, 76.000000)" stroke="#0000FA" stroke-width="4">
                <path d="M73.8185477,14.0053563 C97.345548,15.1393563 137.881548,19.3913563 148.652548,43.486356 C159.424548,67.580356 146.152548,102.233356 119.739548,119.171356 C93.326548,136.108356 58.5115477,137.312356 35.2675477,129.375356 C12.0225477,121.438356 1.5345477,97.711356 7.7705477,74.000356 C14.0075477,50.289356 16.5585477,34.698356 37.8185477,21.0923563 C37.8185477,21.0923563 50.2905477,12.8713563 73.8185477,14.0053563 L73.8185477,14.0053563 Z M46.431522,111.648477 C46.761301,132.270715 39.9059742,130.47936 33.3072803,132.104692 C26.4924753,123.295084 14.33512,123.295084 14.33512,123.295084 L46.431522,111.648477 Z M115.011548,118.364356 L128.751548,118.364356 L128.751548,102.072356 L115.011548,102.072356 L115.011548,118.364356 L115.011548,118.364356 Z M116.967548,47.478356 C116.967548,47.478356 113.282548,33.305356 121.786548,26.785356 C130.290548,20.265356 139.361548,21.116356 144.747548,15.163356 C150.133548,9.210356 152.684548,0.423356 152.684548,0.423356 L116.967548,47.478356 Z M1.5155477,73.026356 C1.5155477,73.026356 -2.1694523,58.853356 6.3345477,52.333356 C14.8385477,45.813356 23.9095477,46.664356 29.2955477,40.711356 C34.6815477,34.758356 37.2325477,25.971356 37.2325477,25.971356 L1.5155477,73.026356 Z" id="icono_t0t"></path>
                <path d="M273.818548,14.0053563 C297.345548,15.1393563 337.881548,19.3913563 348.652548,43.486356 C359.424548,67.580356 346.152548,102.233356 319.739548,119.171356 C293.326548,136.108356 258.511548,137.312356 235.267548,129.375356 C212.022548,121.438356 201.534548,97.711356 207.770548,74.000356 C214.007548,50.289356 216.558548,34.698356 237.818548,21.0923563 C237.818548,21.0923563 250.290548,12.8713563 273.818548,14.0053563 L273.818548,14.0053563 Z M246.431522,107.648477 C246.761301,128.270715 239.905974,126.47936 233.30728,128.104692 C226.492475,119.295084 214.33512,119.295084 214.33512,119.295084 L246.431522,107.648477 Z M297.011548,127.364356 L310.751548,127.364356 L310.751548,111.072356 L297.011548,111.072356 L297.011548,127.364356 L297.011548,127.364356 Z M316.967548,48.478356 C316.967548,48.478356 313.282548,34.305356 321.786548,27.785356 C330.290548,21.265356 339.361548,31.116356 344.747548,25.163356 C350.133548,19.210356 359.684548,15.423356 359.684548,15.423356 L316.967548,48.478356 Z M201.515548,73.026356 C201.515548,73.026356 197.830548,58.853356 206.334548,52.333356 C214.838548,45.813356 221.275474,44.525917 226.661474,38.572917 C232.047474,32.619917 237.232548,25.971356 237.232548,25.971356 L201.515548,73.026356 Z" id="icono_t0t-2"></path>
                <path d="M473.818548,14.0053563 C497.345548,15.1393563 537.881548,19.3913563 548.652548,43.486356 C559.424548,67.580356 546.152548,102.233356 519.739548,119.171356 C493.326548,136.108356 458.511548,137.312356 435.267548,129.375356 C412.022548,121.438356 401.534548,97.711356 407.770548,74.000356 C414.007548,50.289356 416.558548,34.698356 437.818548,21.0923563 C437.818548,21.0923563 450.290548,12.8713563 473.818548,14.0053563 L473.818548,14.0053563 Z M505.011548,117.364356 L518.751548,117.364356 L518.751548,104.897968 L505.011548,104.897968 L505.011548,117.364356 L505.011548,117.364356 Z M433.162532,119.356495 C434.821881,120.794571 433.760397,123.228179 432.189245,122.896465 C430.618484,122.564361 429.954666,121.330777 430.28638,119.513766 C430.618484,117.697146 431.281911,115.927356 431.281911,115.927356 C431.281911,115.927356 431.503183,117.918419 433.162532,119.356495 L433.162532,119.356495 Z M516.967548,58.478356 C516.967548,58.478356 507.282548,37.305356 515.786548,30.785356 C524.290548,24.265356 535.018443,31.218008 540.404443,25.265008 C545.790443,19.312008 552.181688,19.316575 552.181688,19.316575 L516.967548,58.478356 Z M411.515548,73.026356 C411.515548,73.026356 398.830548,54.853356 407.334548,48.333356 C415.838548,41.813356 422.692448,41.592271 428.078448,35.639271 C433.464448,29.686271 422.380131,25.407063 422.380131,25.407063 L411.515548,73.026356 Z" id="icono_t0t-3"></path>
                <path d="M673.818548,14.0053563 C697.345548,15.1393563 737.881548,19.3913563 748.652548,43.486356 C759.424548,67.580356 746.152548,102.233356 719.739548,119.171356 C693.326548,136.108356 658.511548,137.312356 635.267548,129.375356 C612.022548,121.438356 601.534548,97.711356 607.770548,74.000356 C614.007548,50.289356 616.558548,34.698356 637.818548,21.0923563 C637.818548,21.0923563 650.290548,12.8713563 673.818548,14.0053563 L673.818548,14.0053563 Z M632.475989,97.927356 C632.475989,97.927356 632.94217,102.122158 636.438112,105.15192 C639.934054,108.181681 637.697703,113.308844 634.387576,112.609984 C631.07827,111.910302 629.679729,109.311367 630.378589,105.483261 C631.07827,101.655977 632.475989,97.927356 632.475989,97.927356 L632.475989,97.927356 L632.475989,97.927356 Z M695.011548,107.364356 L708.751548,107.364356 L708.751548,106.897968 L695.011548,106.897968 L695.011548,107.364356 L695.011548,107.364356 Z M716.967548,48.478356 C716.967548,48.478356 713.282548,34.305356 721.786548,27.785356 C730.290548,21.265356 726.616643,44.595995 732.002643,38.642995 C737.388643,32.689995 745.054914,29.170404 745.054914,29.170404 L716.967548,48.478356 Z M601.515548,83.026356 C601.515548,83.026356 597.830548,68.853356 606.334548,62.333356 C614.838548,55.813356 626.102684,52.596922 631.488684,46.643922 C636.874684,40.690922 637.232548,25.971356 637.232548,25.971356 L601.515548,83.026356 Z" id="icono_t0t-4"></path>
                <path d="M873.818548,14.0053563 C897.345548,15.1393563 937.881548,19.3913563 948.652548,43.486356 C959.424548,67.580356 946.152548,102.233356 919.739548,119.171356 C893.326548,136.108356 858.511548,137.312356 835.267548,129.375356 C812.022548,121.438356 801.534548,97.711356 807.770548,74.000356 C814.007548,50.289356 816.558548,34.698356 837.818548,21.0923563 C837.818548,21.0923563 850.290548,12.8713563 873.818548,14.0053563 L873.818548,14.0053563 Z M895.011548,127.364356 L908.751548,127.364356 L908.751548,101.897968 L895.011548,101.897968 L895.011548,127.364356 L895.011548,127.364356 Z M844.425173,106.300378 C849.908786,106.631773 851.72839,116.981783 844.147907,117.808449 C836.567424,118.635115 837.148407,113.772727 837.87396,109.798404 C838.600367,105.824934 844.425173,106.300378 844.425173,106.300378 L844.425173,106.300378 Z M906.967548,58.478356 C906.967548,58.478356 903.282548,54.305356 911.786548,47.785356 C920.290548,41.265356 929.361548,42.116356 934.747548,36.163356 C940.133548,30.210356 942.684548,21.423356 942.684548,21.423356 L906.967548,58.478356 Z M821.515548,73.026356 C821.515548,73.026356 821.887099,66.570347 830.391099,60.050347 C838.895099,53.530347 833.909548,36.664356 839.295548,30.711356 C844.681548,24.758356 851.082456,28.210213 847.232548,15.971356 L821.515548,73.026356 Z" id="icono_t0t-6"></path>
                <path d="M1073.81855,14.0053563 C1097.34555,15.1393563 1137.88155,19.3913563 1148.65255,43.486356 C1159.42455,67.580356 1146.15255,102.233356 1119.73955,119.171356 C1093.32655,136.108356 1058.51155,137.312356 1035.26755,129.375356 C1012.02255,121.438356 1001.53455,97.711356 1007.77055,74.000356 C1014.00755,50.289356 1016.55855,34.698356 1037.81855,21.0923563 C1037.81855,21.0923563 1050.29055,12.8713563 1073.81855,14.0053563 L1073.81855,14.0053563 Z M1101.01155,112.364356 L1114.75155,112.364356 L1114.75155,96.072356 L1101.01155,96.072356 L1101.01155,112.364356 L1101.01155,112.364356 Z M1047.78655,111.714356 C1052.03855,115.399356 1049.31855,121.635356 1045.29255,120.785356 C1041.26755,119.934356 1039.56655,116.773356 1040.41655,112.117356 C1041.26755,107.462356 1042.96755,102.927356 1042.96755,102.927356 C1042.96755,102.927356 1043.53455,108.029356 1047.78655,111.714356 L1047.78655,111.714356 Z M1106.96755,58.478356 C1106.96755,58.478356 1103.35805,49.519999 1111.86205,42.999999 C1120.36605,36.479999 1129.43705,37.330999 1134.82305,31.377999 C1140.20905,25.424999 1142.68455,11.423356 1142.68455,11.423356 L1106.96755,58.478356 Z M1031.51555,63.026356 C1031.51555,63.026356 1023.01155,49.922593 1031.51555,43.402593 C1040.01955,36.882593 1049.09055,37.733593 1054.47655,31.780593 C1059.86255,25.827593 1067.23255,15.971356 1067.23255,15.971356 L1031.51555,63.026356 Z" id="icono_t0t-5"></path>
            </g>
        </g>
    </g>
</svg>