<?xml version="1.0" encoding="UTF-8" standalone="no"?>
<svg width="1200px" height="200px" viewBox="0 0 1200 200" version="1.1" xmlns="http://www.w3.org/2000/svg" xmlns:xlink="http://www.w3.org/1999/xlink">
    <!-- Generator: Sketch 3.8.3 (29802) - http://www.bohemiancoding.com/sketch -->
    <title>anim_sentir</title>
    <desc>Created with Sketch.</desc>
    <defs></defs>
    <g id="Page-1" stroke="none" stroke-width="1" fill="none" fill-rule="evenodd">
        <g id="anim_sentir">
            <rect id="Rectangle-1" fill="#FFFFFF" x="0" y="0" width="1200" height="200"></rect>
            <path d="M369.652548,71.5883876 C380.424548,95.6823876 367.152548,130.335388 340.739548,147.273388 C314.326548,164.210388 279.511548,165.414388 256.267548,157.477388 C233.022548,149.540388 222.534548,125.813388 228.770548,102.102388 C235.007548,78.3913876 237.558548,62.8003876 258.818548,49.1943879 C258.818548,49.1943879 271.290548,40.9733879 294.818548,42.1073879 C318.345548,43.2413879 358.881548,47.4933879 369.652548,71.5883876 Z" id="icono_t0t-2-path" stroke="#0000FF" stroke-width="3" stroke-linecap="square" stroke-linejoin="round"></path>
            <path d="M569.652548,71.5883876 C580.424548,95.6823876 567.152548,130.335388 540.739548,147.273388 C514.326548,164.210388 479.511548,165.414388 456.267548,157.477388 C433.022548,149.540388 422.534548,125.813388 428.770548,102.102388 C435.007548,78.3913876 437.558548,62.8003876 458.818548,49.1943879 C458.818548,49.1943879 471.290548,40.9733879 494.818548,42.1073879 C518.345548,43.2413879 558.881548,47.4933879 569.652548,71.5883876 Z" id="icono_t0t-2-path-copy" stroke="#0000FF" stroke-width="3" stroke-linecap="square" stroke-linejoin="round"></path>
            <path d="M769.652548,71.5883876 C780.424548,95.6823876 767.152548,130.335388 740.739548,147.273388 C714.326548,164.210388 679.511548,165.414388 656.267548,157.477388 C633.022548,149.540388 622.534548,125.813388 628.770548,102.102388 C635.007548,78.3913876 637.558548,62.8003876 658.818548,49.1943879 C658.818548,49.1943879 671.290548,40.9733879 694.818548,42.1073879 C718.345548,43.2413879 758.881548,47.4933879 769.652548,71.5883876 Z" id="icono_t0t-2-path-copy-2" stroke="#0000FF" stroke-width="3" stroke-linecap="square" stroke-linejoin="round"></path>
            <path d="M969.652548,71.5883876 C980.424548,95.6823876 967.152548,130.335388 940.739548,147.273388 C914.326548,164.210388 879.511548,165.414388 856.267548,157.477388 C833.022548,149.540388 822.534548,125.813388 828.770548,102.102388 C835.007548,78.3913876 837.558548,62.8003876 858.818548,49.1943879 C858.818548,49.1943879 871.290548,40.9733879 894.818548,42.1073879 C918.345548,43.2413879 958.881548,47.4933879 969.652548,71.5883876 Z" id="icono_t0t-2-path-copy-3" stroke="#0000FF" stroke-width="3" stroke-linecap="square" stroke-linejoin="round"></path>
            <path d="M1169.65255,71.5883876 C1180.42455,95.6823876 1167.15255,130.335388 1140.73955,147.273388 C1114.32655,164.210388 1079.51155,165.414388 1056.26755,157.477388 C1033.02255,149.540388 1022.53455,125.813388 1028.77055,102.102388 C1035.00755,78.3913876 1037.55855,62.8003876 1058.81855,49.1943879 C1058.81855,49.1943879 1071.29055,40.9733879 1094.81855,42.1073879 C1118.34555,43.2413879 1158.88155,47.4933879 1169.65255,71.5883876 Z" id="icono_t0t-2-path-copy-4" stroke="#0000FF" stroke-width="3" stroke-linecap="square" stroke-linejoin="round"></path>
            <path d="M1200,199.5 L0,199.5" id="Line" stroke="#FFFFFF"></path>
            <g id="hacer" transform="translate(27.000000, 42.000000)" stroke="#0000FF">
                <path d="M142.652548,29.5883876 C153.424548,53.6823876 140.152548,88.3353876 113.739548,105.273388 C87.3265477,122.210388 52.5115477,123.414388 29.2675477,115.477388 C6.02254771,107.540388 -4.46545229,83.8133876 1.77054771,60.1023876 C8.00754771,36.3913876 10.5585477,20.8003876 31.8185477,7.19438787 C31.8185477,7.19438787 44.2905477,-1.02661213 67.8185477,0.107387869 C91.3455477,1.24138787 131.881548,5.49338787 142.652548,29.5883876 Z" id="icono_t0t-2-path" stroke-width="3" stroke-linecap="square" stroke-linejoin="round"></path>
                <g id="ola" transform="translate(2.000000, 27.000000)">
                    <path d="M61.7968737,8.78906245 C5.55273429,-16.9941403 19.9375005,41.3906253 35.5703125,56.435548 C51.2031245,71.4804707 75.2655959,73.8652345 89.8847654,73.8652344 C104.622718,73.8652343 128.023435,62.4062462 128.023435,62.4062462" id="Path-6-Copy-6" stroke-width="3"></path>
                    <path d="M3.09570313,66.0957031 C3.09570313,66.0957031 33.1499131,82.5385111 60.7070313,75.7148437 C68.1499131,73.8718444 80.1347656,80.6601556 80.1347656,80.6601556" id="Path-6-Copy" stroke-width="4"></path>
                    <path d="M0.205078125,31.0000001 C0.205078125,31.0000001 4.45069432,7.48382299 32.0078125,0.660155628 C39.4506943,-1.18284368 49.1503906,2.80859365 49.1503906,2.80859365" id="Path-6-Copy-2" stroke-width="4"></path>
                    <path d="M131.693359,57.875 C131.693359,57.875 94.4065755,62.7578125 78.3486328,62.7578125 C58.8434245,62.7578125 25.0039062,57.875 25.0039062,57.875" id="Path-16" stroke-width="3"></path>
                </g>
                <g id="ola-copy-2" transform="translate(402.000000, 27.000000)">
                    <path d="M60.7968737,8.78906245 C4.55273429,-16.9941403 18.9375005,42.3906253 34.5703125,57.435548 C50.2031245,72.4804707 75.2655959,73.8652345 89.8847654,73.8652344 C104.622718,73.8652343 128.023435,62.4062462 128.023435,62.4062462" id="Path-6-Copy-6" stroke-width="3"></path>
                    <path d="M3.09570312,67.0957031 C3.09570312,67.0957031 33.1499131,83.5385111 60.7070313,76.7148437 C68.1499131,74.8718444 79.1347656,80.6601556 79.1347656,80.6601556" id="Path-6-Copy" stroke-width="4"></path>
                    <path d="M0.205078125,31.0000001 C0.205078125,31.0000001 4.45069432,7.48382299 32.0078125,0.660155628 C39.4506943,-1.18284368 49.1503906,2.80859365 49.1503906,2.80859365" id="Path-6-Copy-2" stroke-width="4"></path>
                    <path d="M131.693359,57.875 C131.693359,57.875 94.4065755,62.7578125 78.3486328,62.7578125 C58.8434245,62.7578125 25.0039062,57.875 25.0039062,57.875" id="Path-16" stroke-width="3"></path>
                </g>
                <g id="ola-copy-3" transform="translate(602.000000, 27.000000)">
                    <path d="M58.7968737,8.78906245 C2.55273429,-16.9941403 16.8164072,44.5136759 34.5703125,57.435548 C52.3242178,70.3574201 75.2655959,73.8652345 89.8847654,73.8652344 C104.622718,73.8652343 128.023435,62.4062462 128.023435,62.4062462" id="Path-6-Copy-6" stroke-width="3"></path>
                    <path d="M3.09570312,68.0957031 C3.09570312,68.0957031 32.1499131,82.5385111 59.7070313,75.7148437 C67.1499131,73.8718444 78.1347656,79.6601556 78.1347656,79.6601556" id="Path-6-Copy" stroke-width="4"></path>
                    <path d="M0.205078125,31.0000001 C0.205078125,31.0000001 4.45069432,7.48382299 32.0078125,0.660155628 C39.4506943,-1.18284368 49.1503906,2.80859365 49.1503906,2.80859365" id="Path-6-Copy-2" stroke-width="4"></path>
                    <path d="M131.693359,57.875 C131.693359,57.875 94.4065755,62.7578125 78.3486328,62.7578125 C58.8434245,62.7578125 25.0039062,57.875 25.0039062,57.875" id="Path-16" stroke-width="3"></path>
                </g>
                <g id="ola-copy-4" transform="translate(802.000000, 27.000000)">
                    <path d="M62.7968737,8.78906245 C6.55273429,-16.9941403 13.7500002,48.2011702 31.0292971,56.6875003 C48.3085939,65.1738304 75.2655959,73.8652345 89.8847654,73.8652344 C104.622718,73.8652343 128.023435,62.4062462 128.023435,62.4062462" id="Path-6-Copy-6" stroke-width="3"></path>
                    <path d="M2.09570312,63.0957031 C2.09570312,63.0957031 32.1499131,82.5385111 59.7070312,75.7148437 C67.1499131,73.8718444 79.1347656,79.6601556 79.1347656,79.6601556" id="Path-6-Copy" stroke-width="4"></path>
                    <path d="M0.205078125,31.0000001 C0.205078125,31.0000001 4.45069432,7.48382299 32.0078125,0.660155628 C39.4506943,-1.18284368 49.1503906,2.80859365 49.1503906,2.80859365" id="Path-6-Copy-2" stroke-width="4"></path>
                    <path d="M131.693359,57.875 C131.693359,57.875 94.4065755,62.7578125 78.3486328,62.7578125 C58.8434245,62.7578125 25.0039062,57.875 25.0039062,57.875" id="Path-16" stroke-width="3"></path>
                </g>
                <g id="ola-copy-5" transform="translate(1002.000000, 27.000000)">
                    <path d="M61.7968737,9.78906245 C5.55273429,-15.9941403 18.9375005,41.3906253 34.5703125,56.435548 C50.2031245,71.4804707 75.2655959,72.8652345 89.8847654,72.8652344 C104.622718,72.8652343 128.023435,63.4062462 128.023435,63.4062462" id="Path-6-Copy-6" stroke-width="3"></path>
                    <path d="M3.09570312,66.0957031 C3.09570312,66.0957031 31.1499131,83.5385111 58.7070313,76.7148437 C66.1499131,74.8718444 79.1347656,79.6601556 79.1347656,79.6601556" id="Path-6-Copy" stroke-width="4"></path>
                    <path d="M0.205078125,31.0000001 C0.205078125,31.0000001 4.45069432,7.48382299 32.0078125,0.660155628 C39.4506943,-1.18284368 49.1503906,2.80859365 49.1503906,2.80859365" id="Path-6-Copy-2" stroke-width="4"></path>
                    <path d="M131.693359,57.875 C131.693359,57.875 94.4065755,62.7578125 78.3486328,62.7578125 C58.8434245,62.7578125 25.0039062,57.875 25.0039062,57.875" id="Path-16" stroke-width="3"></path>
                </g>
                <g id="ola-copy" transform="translate(202.000000, 27.000000)">
                    <path d="M61.7968737,8.78906245 C5.55273429,-16.9941403 18.9375005,42.3906253 34.5703125,57.435548 C50.2031245,72.4804707 75.2655959,73.8652345 89.8847654,73.8652344 C104.622718,73.8652343 128.023435,62.4062462 128.023435,62.4062462" id="Path-6-Copy-6" stroke-width="3"></path>
                    <path d="M3.09570312,65.0957031 C3.09570312,65.0957031 32.1499131,82.5385111 59.7070312,75.7148437 C67.1499131,73.8718444 80.1347656,79.6601556 80.1347656,79.6601556" id="Path-6-Copy" stroke-width="4"></path>
                    <path d="M0.205078125,31.0000001 C0.205078125,31.0000001 4.45069432,7.48382299 32.0078125,0.660155628 C39.4506943,-1.18284368 49.1503906,2.80859365 49.1503906,2.80859365" id="Path-6-Copy-2" stroke-width="4"></path>
                    <path d="M131.693359,57.875 C131.693359,57.875 94.4065755,62.7578125 78.3486328,62.7578125 C58.8434245,62.7578125 25.0039062,57.875 25.0039062,57.875" id="Path-16" stroke-width="3"></path>
                </g>
                <g id="surfista" transform="translate(21.000000, 40.000000)">
                    <circle id="Oval-1" stroke-width="3" cx="29" cy="4" r="4"></circle>
                    <path d="M2.68164062,57.3417969 C2.68164062,57.3417969 9.01562547,61.7265625 29.164063,59.4746094 C49.3125005,57.2226563 62.4394536,44.2363281 62.4394536,44.2363281 C62.4394536,44.2363281 28.1320988,46.4296875 11.3899113,46.4296875 C-5.35227619,46.4296875 2.68164062,57.3417969 2.68164062,57.3417969 Z" id="tabla" stroke-width="4" stroke-linecap="round" stroke-linejoin="bevel" fill="#FFFFFF"></path>
                    <polyline id="Path-17-Copy-2" stroke-width="3" points="21.0244613 28 21.1768049 43.390625 22.0244612 54.5527344 16 54.5527344"></polyline>
                    <polyline id="Path-17-Copy" stroke-width="3" points="29.3232893 28 29.1768049 43.390625 30.0244612 54.5527344 24 54.5527344"></polyline>
                    <polyline id="Path-17-Copy-5" stroke-width="3" points="25.3232893 3 25.1768049 18.390625 26.0244612 29.5527344 20 29.5527344"></polyline>
                    <polyline id="Path-17-Copy-3" stroke-width="3" points="26 10 32.3828125 16.0039062 32.3828125 27.2382812"></polyline>
                    <polyline id="Path-17-Copy-4" stroke-width="3" points="24.5146484 9 18.7573242 9 13 14.5668945"></polyline>
                </g>
                <g id="surfista-copy-2" transform="translate(421.000000, 41.000000)">
                    <circle id="Oval-1" stroke-width="3" cx="29" cy="4" r="4"></circle>
                    <path d="M2.68164062,57.3417969 C2.68164062,57.3417969 9.01562547,61.7265625 29.164063,59.4746094 C49.3125005,57.2226563 62.4394536,44.2363281 62.4394536,44.2363281 C62.4394536,44.2363281 28.1320988,46.4296875 11.3899113,46.4296875 C-5.35227619,46.4296875 2.68164062,57.3417969 2.68164062,57.3417969 Z" id="tabla" stroke-width="4" stroke-linecap="round" stroke-linejoin="bevel" fill="#FFFFFF"></path>
                    <polyline id="Path-17-Copy-2" stroke-width="3" points="21.0244613 28 21.1768049 43.390625 22.0244612 54.5527344 16 54.5527344"></polyline>
                    <polyline id="Path-17-Copy" stroke-width="3" points="29.3232893 28 29.1768049 43.390625 30.0244612 54.5527344 24 54.5527344"></polyline>
                    <polyline id="Path-17-Copy-5" stroke-width="3" points="25.3232893 3 25.1768049 18.390625 26.0244612 29.5527344 20 29.5527344"></polyline>
                    <polyline id="Path-17-Copy-3" stroke-width="3" points="26 10 32.3828125 16.0039062 32.3828125 27.2382812"></polyline>
                    <polyline id="Path-17-Copy-4" stroke-width="3" points="24.5146484 9 18.7573242 9 13 14.5668945"></polyline>
                </g>
                <g id="surfista-copy-3" transform="translate(620.000000, 40.000000)">
                    <circle id="Oval-1" stroke-width="3" cx="29" cy="4" r="4"></circle>
                    <path d="M2.68164062,57.3417969 C2.68164062,57.3417969 9.01562547,61.7265625 29.164063,59.4746094 C49.3125005,57.2226563 62.4394536,44.2363281 62.4394536,44.2363281 C62.4394536,44.2363281 28.1320988,46.4296875 11.3899113,46.4296875 C-5.35227619,46.4296875 2.68164062,57.3417969 2.68164062,57.3417969 Z" id="tabla" stroke-width="4" stroke-linecap="round" stroke-linejoin="bevel" fill="#FFFFFF"></path>
                    <polyline id="Path-17-Copy-2" stroke-width="3" points="21.0244613 28 21.1768049 43.390625 22.0244612 54.5527344 16 54.5527344"></polyline>
                    <polyline id="Path-17-Copy" stroke-width="3" points="29.3232893 28 29.1768049 43.390625 30.0244612 54.5527344 24 54.5527344"></polyline>
                    <polyline id="Path-17-Copy-5" stroke-width="3" points="25.3232893 3 25.1768049 18.390625 26.0244612 29.5527344 20 29.5527344"></polyline>
                    <polyline id="Path-17-Copy-3" stroke-width="3" points="26 10 32.3828125 16.0039062 32.3828125 27.2382812"></polyline>
                    <polyline id="Path-17-Copy-4" stroke-width="3" points="24.5146484 9 18.7573242 9 13 14.5668945"></polyline>
                </g>
                <g id="surfista-copy-4" transform="translate(821.000000, 39.000000)">
                    <circle id="Oval-1" stroke-width="3" cx="29" cy="4" r="4"></circle>
                    <path d="M2.68164062,57.3417969 C2.68164062,57.3417969 9.01562547,61.7265625 29.164063,59.4746094 C49.3125005,57.2226563 62.4394536,44.2363281 62.4394536,44.2363281 C62.4394536,44.2363281 28.1320988,46.4296875 11.3899113,46.4296875 C-5.35227619,46.4296875 2.68164062,57.3417969 2.68164062,57.3417969 Z" id="tabla" stroke-width="4" stroke-linecap="round" stroke-linejoin="bevel" fill="#FFFFFF"></path>
                    <polyline id="Path-17-Copy-2" stroke-width="3" points="21.0244613 28 21.1768049 43.390625 22.0244612 54.5527344 16 54.5527344"></polyline>
                    <polyline id="Path-17-Copy" stroke-width="3" points="29.3232893 28 29.1768049 43.390625 30.0244612 54.5527344 24 54.5527344"></polyline>
                    <polyline id="Path-17-Copy-5" stroke-width="3" points="25.3232893 3 25.1768049 18.390625 26.0244612 29.5527344 20 29.5527344"></polyline>
                    <polyline id="Path-17-Copy-3" stroke-width="3" points="26 10 32.3828125 16.0039062 32.3828125 27.2382812"></polyline>
                    <polyline id="Path-17-Copy-4" stroke-width="3" points="24.5146484 9 18.7573242 9 13 14.5668945"></polyline>
                </g>
                <g id="surfista-copy-5" transform="translate(1022.000000, 41.000000)">
                    <circle id="Oval-1" stroke-width="3" cx="29" cy="4" r="4"></circle>
                    <path d="M2.68164062,57.3417969 C2.68164062,57.3417969 9.01562547,61.7265625 29.164063,59.4746094 C49.3125005,57.2226563 62.4394536,44.2363281 62.4394536,44.2363281 C62.4394536,44.2363281 28.1320988,46.4296875 11.3899113,46.4296875 C-5.35227619,46.4296875 2.68164062,57.3417969 2.68164062,57.3417969 Z" id="tabla" stroke-width="4" stroke-linecap="round" stroke-linejoin="bevel" fill="#FFFFFF"></path>
                    <polyline id="Path-17-Copy-2" stroke-width="3" points="21.0244613 28 21.1768049 43.390625 22.0244612 54.5527344 16 54.5527344"></polyline>
                    <polyline id="Path-17-Copy" stroke-width="3" points="29.3232893 28 29.1768049 43.390625 30.0244612 54.5527344 24 54.5527344"></polyline>
                    <polyline id="Path-17-Copy-5" stroke-width="3" points="25.3232893 3 25.1768049 18.390625 26.0244612 29.5527344 20 29.5527344"></polyline>
                    <polyline id="Path-17-Copy-3" stroke-width="3" points="26 10 32.3828125 16.0039062 32.3828125 27.2382812"></polyline>
                    <polyline id="Path-17-Copy-4" stroke-width="3" points="24.5146484 9 18.7573242 9 13 14.5668945"></polyline>
                </g>
                <g id="surfista-copy" transform="translate(222.000000, 40.000000)">
                    <circle id="Oval-1" stroke-width="3" cx="29" cy="4" r="4"></circle>
                    <path d="M2.68164062,57.3417969 C2.68164062,57.3417969 9.01562547,61.7265625 29.164063,59.4746094 C49.3125005,57.2226563 62.4394536,44.2363281 62.4394536,44.2363281 C62.4394536,44.2363281 28.1320988,46.4296875 11.3899113,46.4296875 C-5.35227619,46.4296875 2.68164062,57.3417969 2.68164062,57.3417969 Z" id="tabla" stroke-width="4" stroke-linecap="round" stroke-linejoin="bevel" fill="#FFFFFF"></path>
                    <polyline id="Path-17-Copy-2" stroke-width="3" points="21.0244613 28 21.1768049 43.390625 22.0244612 54.5527344 16 54.5527344"></polyline>
                    <polyline id="Path-17-Copy" stroke-width="3" points="29.3232893 28 29.1768049 43.390625 30.0244612 54.5527344 24 54.5527344"></polyline>
                    <polyline id="Path-17-Copy-5" stroke-width="3" points="25.3232893 3 25.1768049 18.390625 26.0244612 29.5527344 20 29.5527344"></polyline>
                    <polyline id="Path-17-Copy-3" stroke-width="3" points="26 10 32.3828125 16.0039062 32.3828125 27.2382812"></polyline>
                    <polyline id="Path-17-Copy-4" stroke-width="3" points="24.5146484 9 18.7573242 9 13 14.5668945"></polyline>
                </g>
            </g>
        </g>
    </g>
</svg>