<?xml version="1.0" encoding="UTF-8" standalone="no"?>
<svg width="303px" height="306px" viewBox="0 0 303 306" version="1.1" xmlns="http://www.w3.org/2000/svg" xmlns:xlink="http://www.w3.org/1999/xlink">
    <!-- Generator: Sketch 3.8.3 (29802) - http://www.bohemiancoding.com/sketch -->
    <title>Group</title>
    <desc>Created with Sketch.</desc>
    <defs></defs>
    <g id="Page-1" stroke="none" stroke-width="1" fill="none" fill-rule="evenodd" stroke-linecap="round" stroke-linejoin="round">
        <g id="Group" stroke-width="0.3">
            <path d="M3.437,160.051 C1.792,115.046 25.138,84.463 23.617,78.373 C21.956,71.717 16.894,70.522 16.184,72.136 C13.513,78.203 29.017,87.08 34.236,84.334 C45.501,78.407 31.231,61.446 27.019,56.157 C21.784,49.581 15.535,46.723 14.017,47.585 C10.492,49.585 19.845,60.582 21.27,62.052 C29.388,70.427 50.171,84.704 53.864,82.582 C58.646,79.834 44.678,51.559 38.789,44.533 C36.734,42.082 23.848,25.136 19.117,29.584 C13.54,34.829 27.543,46.34 32.581,50.402 C41.287,57.419 65.228,77.591 71.88,70.338 C75.255,66.66 55.738,36.623 51.558,31.764 C41.583,20.169 33.373,14.629 29.703,17.707 C24.281,22.253 36.104,31.913 44.094,39.228 C46.22,41.175 72.523,63.848 78.027,58.233 C82.644,53.524 66.901,28.921 60.862,22.46 C56.312,17.591 51.486,13.414 48.56,16.213 C45.466,19.173 52.848,25.308 56.204,27.118 C60.381,29.37 80.109,44.306 83.683,40.094 C87.298,35.832 71.762,19.349 70.434,20.558 C69.056,21.812 70.442,24.198 71.387,25.076 C73.53,27.067 78.242,27.618 80.691,25.973 C86.485,22.082 109.842,3.206 144.858,4.488" id="Stroke-1" stroke="#000000"></path>
            <path d="M144.858,4.488 C192.533,0.931 222.76,28.641 228.851,27.121 C235.506,25.46 236.701,20.398 235.087,19.688 C229.02,17.017 220.143,32.521 222.889,37.74 C228.816,49.004 245.777,34.735 251.067,30.523 C257.642,25.288 260.5,19.039 259.638,17.52 C257.638,13.996 246.641,23.349 245.171,24.774 C236.796,32.891 222.519,53.675 224.641,57.368 C227.39,62.15 255.664,48.182 262.69,42.293 C265.141,40.238 282.087,27.352 277.639,22.621 C272.394,17.043 260.883,31.047 256.822,36.085 C249.804,44.791 229.633,68.732 236.885,75.384 C240.563,78.758 270.6,59.241 275.459,55.062 C287.054,45.087 292.594,36.877 289.517,33.207 C284.97,27.785 275.31,39.608 267.995,47.598 C266.048,49.724 243.375,76.027 248.99,81.531 C253.699,86.148 278.302,70.404 284.763,64.366 C289.632,59.816 293.809,54.99 291.01,52.064 C288.05,48.97 281.915,56.352 280.105,59.708 C277.853,63.885 262.917,83.613 267.13,87.187 C271.391,90.802 287.874,75.266 286.665,73.938 C285.411,72.56 283.025,73.946 282.147,74.891 C280.156,77.034 279.605,81.746 281.25,84.195 C285.141,89.989 293.544,104.829 300.421,145.909" id="Stroke-2" stroke="#000000"></path>
            <path d="M300.421,145.909 C301.604,206.708 276.128,221.933 277.649,228.024 C279.31,234.679 284.371,235.874 285.082,234.261 C287.753,228.193 272.248,219.317 267.03,222.063 C255.765,227.99 270.035,244.95 274.246,250.24 C279.481,256.815 285.731,259.673 287.249,258.812 C290.774,256.811 281.421,245.815 279.996,244.344 C271.878,235.97 251.095,221.693 247.402,223.815 C242.619,226.563 256.587,254.837 262.477,261.863 C264.532,264.314 277.418,281.26 282.149,276.812 C287.726,271.568 273.723,260.056 268.684,255.995 C259.979,248.977 236.038,228.806 229.385,236.058 C226.011,239.737 245.528,269.773 249.708,274.632 C259.683,286.228 267.893,291.768 271.563,288.69 C276.985,284.143 265.161,274.483 257.172,267.168 C255.046,265.221 228.743,242.548 223.239,248.163 C218.621,252.873 234.365,277.475 240.403,283.936 C244.953,288.805 249.779,292.983 252.706,290.183 C255.799,287.223 248.418,281.088 245.061,279.279 C240.884,277.027 221.156,262.09 217.583,266.303 C213.968,270.564 229.504,287.048 230.832,285.838 C232.209,284.584 230.824,282.199 229.879,281.321 C227.735,279.329 223.024,278.779 220.574,280.423 C214.78,284.315 205.991,300.465 148.117,304.732" id="Stroke-3" stroke="#9119E6"></path>
            <path d="M3.437,160.051 C0.891,197.708 21.279,230.122 27.37,228.602 C34.025,226.941 35.22,221.879 33.606,221.169 C27.539,218.498 18.662,234.002 21.408,239.221 C27.335,250.485 44.296,236.216 49.586,232.004 C56.161,226.769 59.019,220.52 58.157,219.001 C56.157,215.477 45.16,224.83 43.69,226.255 C35.315,234.372 21.038,255.156 23.16,258.849 C25.909,263.631 54.183,249.663 61.209,243.774 C63.66,241.719 80.606,228.833 76.158,224.102 C70.913,218.524 59.402,232.528 55.341,237.566 C48.323,246.272 28.152,270.213 35.404,276.865 C39.082,280.239 69.119,260.722 73.978,256.543 C85.573,246.568 91.113,238.358 88.036,234.688 C83.489,229.266 73.829,241.089 66.514,249.079 C64.567,251.205 41.894,277.508 47.509,283.012 C52.218,287.629 76.821,271.885 83.282,265.847 C88.151,261.297 92.328,256.471 89.529,253.545 C86.569,250.451 80.434,257.833 78.624,261.189 C76.372,265.366 61.436,285.094 65.649,288.668 C69.91,292.283 86.393,276.747 85.184,275.419 C83.93,274.041 81.544,275.427 80.666,276.372 C78.675,278.515 78.124,283.227 79.769,285.676 C83.66,291.47 118.099,302.798 147.992,304.607" id="Stroke-4" stroke="#9119E6"></path>
            <path d="M300.051,159.344 C301.695,114.339 278.349,83.756 279.87,77.665 C281.531,71.01 286.593,69.815 287.303,71.429 C289.974,77.496 274.47,86.373 269.251,83.627 C257.987,77.7 272.256,60.739 276.468,55.449 C281.703,48.874 287.952,46.016 289.47,46.877 C292.995,48.878 283.642,59.875 282.217,61.345 C274.099,69.72 253.316,83.996 249.623,81.875 C244.841,79.126 258.809,50.852 264.698,43.826 C266.753,41.375 279.639,24.429 284.37,28.877 C289.947,34.122 275.944,45.633 270.906,49.694 C262.2,56.712 238.259,76.883 231.607,69.631 C228.233,65.953 247.749,35.916 251.929,31.057 C261.904,19.462 270.114,13.922 273.784,16.999 C279.206,21.546 267.383,31.206 259.393,38.521 C257.267,40.468 230.964,63.141 225.46,57.526 C220.843,52.817 236.587,28.214 242.625,21.753 C247.175,16.884 252.001,12.707 254.927,15.506 C258.021,18.466 250.639,24.601 247.283,26.411 C243.106,28.663 223.378,43.599 219.804,39.386 C216.189,35.125 231.725,18.642 233.053,19.851 C234.431,21.105 233.045,23.491 232.1,24.369 C229.957,26.36 225.245,26.911 222.796,25.266 C217.002,21.375 193.645,2.499 158.629,3.78" id="Stroke-5" stroke="#E5F30C"></path>
            <path d="M143.78,304.301 C191.455,307.857 221.682,280.147 227.773,281.668 C234.428,283.329 235.623,288.39 234.009,289.101 C227.942,291.772 219.065,276.267 221.811,271.049 C227.738,259.784 244.699,274.054 249.989,278.265 C256.564,283.5 259.422,289.75 258.56,291.268 C256.56,294.793 245.563,285.44 244.093,284.014 C235.718,275.897 221.441,255.113 223.563,251.421 C226.312,246.638 254.586,260.606 261.612,266.496 C264.063,268.551 281.009,281.437 276.561,286.168 C271.316,291.745 259.805,277.742 255.744,272.703 C248.726,263.997 228.555,240.057 235.807,233.404 C239.485,230.03 269.522,249.547 274.381,253.727 C285.976,263.702 291.516,271.912 288.439,275.582 C283.892,281.004 274.232,269.18 266.917,261.191 C264.97,259.065 242.297,232.762 247.912,227.258 C252.621,222.64 277.224,238.384 283.685,244.422 C288.554,248.972 292.731,253.798 289.932,256.724 C286.972,259.818 280.837,252.437 279.027,249.08 C276.775,244.903 261.839,225.175 266.052,221.602 C270.313,217.987 286.796,233.523 285.587,234.851 C284.333,236.228 281.947,234.843 281.069,233.898 C279.078,231.754 278.527,227.043 280.172,224.593 C284.063,218.799 292.466,203.96 299.343,162.879" id="Stroke-6" stroke="#000000"></path>
            <path d="M160.75,301.472 C99.951,302.655 84.726,277.179 78.636,278.7 C71.98,280.361 70.785,285.422 72.399,286.133 C78.466,288.804 87.343,273.299 84.597,268.081 C78.67,256.816 61.709,271.086 56.42,275.297 C49.844,280.533 46.986,286.782 47.848,288.3 C49.848,291.825 60.845,282.472 62.315,281.047 C70.69,272.929 84.967,252.146 82.845,248.453 C80.097,243.67 51.822,257.638 44.796,263.528 C42.345,265.583 25.399,278.469 29.847,283.2 C35.092,288.777 46.603,274.774 50.665,269.735 C57.682,261.03 77.854,237.089 70.601,230.437 C66.923,227.062 36.886,246.579 32.027,250.759 C20.432,260.734 14.892,268.944 17.97,272.614 C22.516,278.036 32.176,266.212 39.491,258.223 C41.438,256.097 64.111,229.794 58.497,224.29 C53.787,219.673 29.184,235.416 22.723,241.455 C17.855,246.004 13.677,250.83 16.476,253.757 C19.436,256.85 25.571,249.469 27.381,246.112 C29.633,241.935 44.57,222.207 40.357,218.634 C36.095,215.019 19.612,230.555 20.821,231.883 C22.075,233.26 24.461,231.875 25.339,230.93 C27.331,228.786 27.881,224.075 26.236,221.625 C22.345,215.831 6.194,207.042 1.928,149.168" id="Stroke-7" stroke="#E5F30C"></path>
            <path d="M146.608,4.488 C108.952,1.942 76.537,22.33 78.057,28.421 C79.719,35.076 84.78,36.271 85.491,34.657 C88.162,28.59 72.657,19.713 67.439,22.459 C56.174,28.386 70.444,45.347 74.655,50.637 C79.89,57.212 86.14,60.07 87.658,59.209 C91.183,57.208 81.83,46.211 80.404,44.741 C72.287,36.366 51.503,22.09 47.811,24.211 C43.028,26.96 56.996,55.234 62.886,62.26 C64.941,64.711 77.827,81.657 82.558,77.209 C88.135,71.964 74.132,60.453 69.093,56.392 C60.387,49.374 36.447,29.203 29.794,36.455 C26.42,40.133 45.937,70.17 50.117,75.029 C60.092,86.624 68.302,92.164 71.972,89.087 C77.394,84.54 65.57,74.88 57.581,67.565 C55.455,65.618 29.152,42.945 23.648,48.56 C19.03,53.269 34.774,77.872 40.812,84.333 C45.362,89.202 50.188,93.379 53.114,90.58 C56.208,87.62 48.827,81.485 45.47,79.675 C41.293,77.423 21.565,62.487 17.992,66.7 C14.377,70.961 29.913,87.444 31.241,86.235 C32.618,84.981 31.233,82.595 30.288,81.717 C28.144,79.726 23.433,79.175 20.983,80.82 C15.189,84.711 3.861,119.15 2.053,149.043" id="Stroke-8" stroke="#E5F30C"></path>
            <path d="M302.641,159.344 C304.286,114.339 280.94,83.756 282.461,77.665 C284.122,71.01 289.184,69.815 289.894,71.429 C292.565,77.496 277.061,86.373 271.842,83.627 C260.577,77.7 274.847,60.739 279.059,55.449 C284.294,48.874 290.543,46.016 292.061,46.877 C295.586,48.878 286.233,59.875 284.808,61.345 C276.69,69.72 255.907,83.996 252.214,81.875 C247.432,79.126 261.4,50.852 267.289,43.826 C269.344,41.375 282.23,24.429 286.961,28.877 C292.538,34.122 278.535,45.633 273.497,49.694 C264.791,56.712 240.85,76.883 234.198,69.631 C230.824,65.953 250.34,35.916 254.52,31.057 C264.495,19.462 272.705,13.922 276.375,16.999 C281.797,21.546 269.974,31.206 261.984,38.521 C259.858,40.468 233.555,63.141 228.051,57.526 C223.434,52.817 239.177,28.214 245.216,21.753 C249.766,16.884 254.592,12.707 257.518,15.506 C260.612,18.466 253.23,24.601 249.874,26.411 C245.697,28.663 225.969,43.599 222.395,39.386 C218.78,35.125 234.316,18.642 235.644,19.851 C237.022,21.105 235.636,23.491 234.691,24.369 C232.548,26.36 227.836,26.911 225.387,25.266 C219.593,21.375 196.236,2.499 161.22,3.78" id="Stroke-9" stroke="#E61919"></path>
            <path d="M301.227,143.788 C304.784,191.463 277.073,221.689 278.594,227.78 C280.255,234.435 285.317,235.631 286.027,234.017 C288.698,227.95 273.194,219.073 267.975,221.819 C256.71,227.746 270.98,244.707 275.192,249.996 C280.427,256.571 286.676,259.43 288.194,258.568 C291.719,256.568 282.366,245.571 280.941,244.101 C272.823,235.726 252.04,221.449 248.347,223.571 C243.565,226.319 257.533,254.593 263.422,261.619 C265.477,264.071 278.363,281.017 283.094,276.568 C288.671,271.324 274.668,259.812 269.63,255.751 C260.924,248.734 236.983,228.562 230.331,235.814 C226.956,239.493 246.473,269.53 250.653,274.389 C260.628,285.984 268.838,291.524 272.508,288.446 C277.93,283.899 266.107,274.24 258.117,266.924 C255.991,264.978 229.688,242.305 224.184,247.919 C219.567,252.629 235.31,277.232 241.349,283.693 C245.899,288.561 250.725,292.739 253.651,289.94 C256.745,286.98 249.363,280.844 246.007,279.035 C241.83,276.783 222.102,261.846 218.528,266.059 C214.913,270.321 230.449,286.804 231.777,285.595 C233.155,284.34 231.769,281.955 230.824,281.077 C228.681,279.085 223.969,278.535 221.52,280.18 C215.726,284.071 199.329,298.005 147.686,304.301" id="Stroke-10" stroke="#9119E6"></path>
            <path d="M159.806,299.351 C99.007,300.534 83.782,275.058 77.691,276.578 C71.036,278.24 69.84,283.301 71.454,284.011 C77.522,286.683 86.398,271.178 83.652,265.959 C77.725,254.695 60.765,268.964 55.475,273.176 C48.9,278.411 46.041,284.66 46.903,286.179 C48.904,289.704 59.9,280.35 61.37,278.925 C69.745,270.808 84.022,250.024 81.9,246.331 C79.152,241.549 50.878,255.517 43.852,261.407 C41.4,263.462 24.455,276.348 28.903,281.078 C34.147,286.656 45.659,272.652 49.72,267.614 C56.737,258.908 76.909,234.968 69.657,228.315 C65.978,224.941 35.942,244.458 31.083,248.638 C19.487,258.613 13.947,266.822 17.025,270.493 C21.572,275.914 31.231,264.091 38.547,256.102 C40.494,253.976 63.167,227.672 57.552,222.168 C52.842,217.551 28.239,233.295 21.778,239.333 C16.91,243.883 12.732,248.709 15.532,251.635 C18.491,254.729 24.627,247.348 26.436,243.991 C28.688,239.814 43.625,220.086 39.412,216.512 C35.151,212.897 18.667,228.433 19.877,229.762 C21.131,231.139 23.516,229.753 24.394,228.809 C26.386,226.665 26.936,221.953 25.291,219.504 C21.4,213.71 5.249,204.921 0.983,147.047" id="Stroke-11" stroke="#000000"></path>
            <path d="M145.664,2.366 C108.007,-0.179 75.592,20.208 77.113,26.299 C78.774,32.954 83.836,34.15 84.546,32.536 C87.217,26.469 71.713,17.592 66.494,20.338 C55.229,26.265 69.499,43.226 73.711,48.515 C78.946,55.09 85.195,57.949 86.713,57.087 C90.238,55.087 80.885,44.09 79.46,42.62 C71.342,34.245 50.559,19.968 46.866,22.09 C42.084,24.838 56.052,53.112 61.941,60.138 C63.996,62.59 76.882,79.536 81.613,75.087 C87.19,69.843 73.187,58.331 68.149,54.27 C59.443,47.253 35.502,27.081 28.85,34.333 C25.476,38.012 44.992,68.049 49.172,72.908 C59.147,84.503 67.357,90.043 71.027,86.965 C76.449,82.418 64.626,72.759 56.636,65.443 C54.51,63.497 28.207,40.824 22.703,46.438 C18.086,51.148 33.829,75.751 39.868,82.212 C44.418,87.08 49.244,91.258 52.17,88.459 C55.264,85.499 47.882,79.363 44.526,77.554 C40.349,75.302 20.621,60.365 17.047,64.578 C13.432,68.84 28.968,85.323 30.296,84.114 C31.674,82.859 30.288,80.474 29.343,79.596 C27.2,77.604 22.488,77.054 20.039,78.699 C14.245,82.59 2.916,117.028 1.108,146.922" id="Stroke-12" stroke="#6BA659"></path>
            <path d="M300.421,160.051 C302.066,205.057 271.748,226.075 273.269,232.166 C274.93,238.821 279.991,240.017 280.702,238.403 C283.373,232.336 267.868,223.459 262.65,226.205 C251.385,232.132 265.655,249.093 269.866,254.382 C275.101,260.958 281.351,263.816 282.869,262.954 C286.394,260.954 277.041,249.957 275.616,248.487 C267.498,240.112 246.714,225.835 243.022,227.957 C238.239,230.705 252.207,258.979 258.097,266.005 C260.152,268.457 273.038,285.403 277.769,280.954 C283.346,275.71 269.343,264.199 264.304,260.137 C255.598,253.12 231.658,232.948 225.005,240.2 C221.631,243.879 241.148,273.916 245.328,278.775 C255.303,290.37 263.513,295.91 267.183,292.832 C272.605,288.286 260.781,278.626 252.792,271.311 C250.666,269.364 224.363,246.691 218.859,252.305 C214.241,257.015 229.985,281.618 236.023,288.079 C240.573,292.947 245.399,297.125 248.326,294.326 C251.419,291.366 244.038,285.231 240.681,283.421 C236.504,281.169 216.776,266.232 213.203,270.445 C209.588,274.707 225.124,291.19 226.452,289.981 C227.829,288.726 226.444,286.341 225.499,285.463 C223.355,283.471 218.644,282.921 216.194,284.566 C210.4,288.457 183.228,306.108 148.211,304.826" id="Stroke-13" stroke="#E50CF3"></path>
            <path d="M1.414,142.71 C-2.142,190.385 25.568,220.611 24.047,226.702 C22.386,233.357 17.325,234.553 16.614,232.939 C13.943,226.872 29.447,217.995 34.666,220.741 C45.931,226.668 31.661,243.629 27.45,248.918 C22.214,255.493 15.965,258.352 14.447,257.49 C10.922,255.49 20.275,244.493 21.7,243.023 C29.818,234.648 50.601,220.371 54.294,222.493 C59.077,225.241 45.108,253.515 39.219,260.541 C37.164,262.993 24.278,279.939 19.547,275.49 C13.97,270.246 27.973,258.734 33.012,254.673 C41.717,247.656 65.658,227.484 72.31,234.736 C75.685,238.415 56.168,268.452 51.988,273.311 C42.013,284.906 33.803,290.446 30.133,287.368 C24.711,282.821 36.534,273.162 44.524,265.846 C46.65,263.9 72.953,241.227 78.457,246.841 C83.074,251.551 67.331,276.154 61.292,282.615 C56.742,287.483 51.916,291.661 48.99,288.862 C45.897,285.902 53.278,279.766 56.635,277.957 C60.812,275.705 80.539,260.768 84.113,264.981 C87.728,269.243 72.192,285.726 70.864,284.517 C69.486,283.262 70.872,280.877 71.817,279.999 C73.96,278.007 78.672,277.457 81.121,279.102 C86.916,282.993 101.755,291.396 142.835,298.273" id="Stroke-14" stroke="#E5F30C"></path>
            <path d="M4.242,159.68 C3.06,98.881 28.536,83.656 27.015,77.565 C25.354,70.91 20.293,69.715 19.582,71.328 C16.911,77.396 32.415,86.272 37.634,83.526 C48.899,77.599 34.629,60.639 30.418,55.349 C25.182,48.774 18.933,45.916 17.415,46.777 C13.89,48.778 23.243,59.774 24.668,61.245 C32.786,69.62 53.569,83.896 57.262,81.774 C62.044,79.026 48.076,50.752 42.187,43.726 C40.132,41.275 27.246,24.329 22.515,28.777 C16.938,34.022 30.941,45.533 35.98,49.594 C44.685,56.612 68.626,76.783 75.278,69.531 C78.653,65.853 59.136,35.816 54.956,30.957 C44.981,19.361 36.771,13.822 33.101,16.899 C27.679,21.446 39.502,31.106 47.492,38.421 C49.618,40.368 75.921,63.041 81.425,57.426 C86.042,52.716 70.299,28.114 64.26,21.653 C59.71,16.784 54.884,12.606 51.958,15.406 C48.865,18.366 56.246,24.501 59.602,26.311 C63.78,28.562 83.507,43.499 87.081,39.286 C90.696,35.025 75.16,18.542 73.832,19.751 C72.454,21.005 73.84,23.39 74.785,24.269 C76.928,26.26 81.64,26.811 84.089,25.166 C89.884,21.274 98.673,5.124 156.547,0.857" id="Stroke-15" stroke="#E5F30C"></path>
            <path d="M301.227,145.538 C303.773,107.882 283.385,75.467 277.294,76.987 C270.639,78.649 269.444,83.71 271.057,84.42 C277.125,87.092 286.001,71.587 283.255,66.368 C277.328,55.104 260.368,69.373 255.078,73.585 C248.503,78.82 245.645,85.069 246.506,86.588 C248.507,90.112 259.503,80.759 260.974,79.334 C269.349,71.217 283.625,50.433 281.503,46.74 C278.755,41.958 250.481,55.926 243.455,61.816 C241.004,63.871 224.058,76.756 228.506,81.487 C233.75,87.065 245.262,73.061 249.323,68.023 C256.341,59.317 276.512,35.376 269.26,28.724 C265.581,25.35 235.545,44.867 230.686,49.046 C219.09,59.022 213.55,67.231 216.628,70.902 C221.175,76.323 230.835,64.5 238.15,56.511 C240.097,54.384 262.77,28.081 257.155,22.577 C252.445,17.96 227.843,33.704 221.382,39.742 C216.513,44.292 212.335,49.118 215.135,52.044 C218.095,55.138 224.23,47.756 226.04,44.4 C228.291,40.223 243.228,20.495 239.015,16.921 C234.754,13.306 218.27,28.842 219.48,30.17 C220.734,31.548 223.119,30.162 223.997,29.217 C225.989,27.074 226.539,22.362 224.895,19.913 C221.003,14.119 186.565,2.791 156.672,0.983" id="Stroke-16" stroke="#E5F30C"></path>
        </g>
    </g>
</svg>