<svg width="218" height="205" viewBox="179 168 218 205" xmlns="http://www.w3.org/2000/svg">
  <path d="M291.7 279.706c0 4.29.573 9.18-6.93 9.18-5.336 0-12.356-1.82-12.356-9.838 0-8.018 3.657-13.733 12.356-13.733 15.17 0 16.054 7.193 17.938 13.733 1.884 6.54-2.96 22.7-17.938 22.7-14.976 0-26.704-9.496-26.704-22.7 0-13.204 8.687-30.796 26.704-30.796 18.018 0 34.85 9.11 34.85 30.796 0 21.685-20.23 36.71-34.85 36.71-14.75 0-42.678-5.297-42.678-36.71 0-31.412 18.423-49.42 42.678-49.42 24.256 0 56.442 8.736 56.442 49.42s-21.71 63.006-56.442 63.006c-34.73 0-70.743-26.295-70.743-63.006 0-36.71 35.156-72.508 70.743-72.508 41.988 0 84.622 19.187 84.622 72.508 0 53.322-32.616 92.206-84.622 92.206-52.005 0-103.77-28.805-103.77-92.206C181 218.045 232.73 170 284.77 170c54.498 0 110.165 28.244 110.165 109.11 0 80.864-94.067 30.583-110.165 0 0-6.327 6.93-3.694 6.93.596z" stroke="#043D55" stroke-width="3" stroke-linejoin="round" fill="#FFF" fill-rule="evenodd"/>
</svg>
